<svg width="73" height="16" viewBox="0 0 73 16" fill="none" xmlns="http://www.w3.org/2000/svg">
    <path fill-rule="evenodd" clip-rule="evenodd" d="M5.93088 15.2752C9.994 16.2783 14.1087 13.8314 15.1212 9.81423C16.1337 5.7961 13.6624 1.72641 9.59931 0.724226C5.53806 -0.277024 1.42338 2.16891 0.410877 6.18704C-0.601623 10.2042 1.86963 14.2739 5.93088 15.2752ZM9.44181 5.0386C10.4918 5.39673 11.2606 5.93298 11.1106 6.93141C11.0009 7.66173 10.5912 8.01516 10.0474 8.13891C10.7937 8.52329 11.1734 9.11298 10.8115 10.1349C10.3624 11.4042 9.29556 11.5111 7.87713 11.2458L7.53306 12.6099L6.70056 12.4055L7.04088 11.0583C6.82525 11.0058 6.60494 10.9495 6.37806 10.8886L6.03681 12.2414L5.20525 12.0361L5.55025 10.6692L5.31588 10.6092C5.19634 10.578 5.07665 10.5474 4.95681 10.5174L3.874 10.2502L4.2865 9.30891C4.2865 9.30891 4.90056 9.47016 4.89213 9.45798C5.1265 9.51516 5.2315 9.36423 5.27275 9.26204L5.8165 7.10579C5.83713 7.10954 5.85775 7.11516 5.8765 7.11985L5.90463 7.12641C5.8765 7.11548 5.84769 7.1064 5.81838 7.09923L6.2065 5.55891C6.21681 5.38454 6.15588 5.16423 5.81931 5.08079C5.83244 5.07141 5.21463 4.93173 5.21463 4.93173L5.43588 4.05329L6.58338 4.33641V4.3411C6.75494 4.38329 6.93306 4.4236 7.114 4.46391L7.45525 3.11298L8.28681 3.31829L7.95213 4.64298C8.17525 4.6936 8.40025 4.74423 8.61869 4.79766L8.95056 3.48141L9.78306 3.68766L9.44181 5.0386ZM6.81025 9.94079C7.489 10.1189 8.97306 10.5061 9.20838 9.5686C9.45025 8.60954 8.01119 8.29079 7.309 8.13423C7.23119 8.11735 7.16181 8.10141 7.10463 8.08735L6.64806 9.89954L6.81025 9.94079ZM7.45056 7.29423C8.01681 7.44423 9.25056 7.76954 9.46619 6.91735C9.68556 6.04548 8.48556 5.78298 7.90056 5.65454L7.72806 5.6161L7.31369 7.2586L7.45056 7.29423Z" fill="#DC8F39"/>
    <path d="M22.4065 5.03579C23.0215 5.03579 23.5531 5.14454 23.9993 5.35829C24.4474 5.57391 24.8178 5.86548 25.1149 6.23204C25.4074 6.59954 25.6259 7.02985 25.7665 7.52298C25.9071 8.01704 25.9765 8.5486 25.9765 9.11672C25.9765 9.99141 25.8143 10.8164 25.4881 11.5945C25.1768 12.3505 24.724 13.04 24.154 13.6261C23.5833 14.2066 22.905 14.6705 22.1571 14.992C21.37 15.3318 20.5206 15.5033 19.6634 15.4955C19.5481 15.4955 19.3446 15.4917 19.0578 15.4861C18.7274 15.4762 18.3978 15.448 18.0706 15.4017C17.6731 15.3455 17.2789 15.2688 16.8893 15.172C16.4823 15.0748 16.0867 14.935 15.709 14.7548L19.0296 0.955788L22.0034 0.500163L20.8146 5.39673C21.0696 5.28423 21.3256 5.19516 21.5815 5.13141C21.8374 5.0686 22.1131 5.03579 22.4065 5.03579ZM19.9128 13.162C20.3599 13.162 20.7818 13.0524 21.1784 12.8386C21.5759 12.6239 21.919 12.3352 22.2068 11.9752C22.4937 11.6133 22.7215 11.2064 22.8874 10.7498C23.0534 10.2952 23.1368 9.81985 23.1368 9.32485C23.1368 8.71829 23.0337 8.24485 22.8303 7.90173C22.6259 7.56141 22.2471 7.38985 21.6978 7.38985C21.5178 7.38985 21.2853 7.4236 20.9974 7.4836C20.7084 7.54912 20.4407 7.68685 20.2193 7.88391L18.9537 13.0842C19.0296 13.0974 19.0971 13.1095 19.1543 13.1217C19.2902 13.1485 19.4284 13.1616 19.5668 13.1611H19.9118L19.9128 13.162ZM29.0599 15.2339H26.2193L28.6184 5.25048H31.4778L29.0599 15.2339ZM30.4428 4.0336C30.0462 4.0336 29.6862 3.91735 29.3674 3.68298C29.0459 3.45048 28.8865 3.09235 28.8865 2.61048C28.8865 2.34516 28.9409 2.09673 29.0496 1.86141C29.2607 1.40163 29.6378 1.03862 30.1053 0.845163C30.3424 0.744851 30.5956 0.694226 30.8646 0.694226C31.2603 0.694226 31.6184 0.811413 31.9381 1.04485C32.2568 1.27923 32.4181 1.63829 32.4181 2.11735C32.4181 2.3836 32.3637 2.63298 32.254 2.86735C32.1462 3.10173 32.0028 3.30423 31.8228 3.47579C31.6446 3.64641 31.4356 3.78141 31.2003 3.88266C30.9621 3.98579 30.7109 4.0336 30.4428 4.0336ZM33.9678 2.76141L36.9434 2.30579L36.2121 5.2486H39.3987L38.8231 7.56423H35.6571L34.8134 11.0555C34.7356 11.3461 34.6915 11.618 34.6793 11.8711C34.6653 12.1242 34.6981 12.3427 34.7749 12.5274C34.8552 12.7153 35.0021 12.8669 35.1874 12.953C35.3853 13.0542 35.6693 13.1058 36.0406 13.1058C36.3471 13.1058 36.6462 13.0777 36.9349 13.0195C37.2308 12.9615 37.5221 12.8825 37.8068 12.7833L38.0187 14.948C37.6343 15.0867 37.219 15.2067 36.7718 15.307C36.3218 15.4102 35.7912 15.4589 35.1781 15.4589C34.2949 15.4589 33.6115 15.3295 33.124 15.0708C32.6365 14.8111 32.2934 14.4558 32.0871 14.0067C31.8837 13.5586 31.7928 13.042 31.8181 12.4598C31.8453 11.8777 31.9334 11.2645 32.0871 10.6195L33.9678 2.76141ZM39.2731 11.2439C39.2731 10.3842 39.4137 9.57329 39.6949 8.81391C39.9762 8.05454 40.3803 7.38891 40.9053 6.81985C41.4416 6.24286 42.0923 5.78403 42.8159 5.47266C43.5621 5.14454 44.3974 4.9786 45.319 4.9786C45.8956 4.9786 46.4103 5.03298 46.864 5.14079C47.3187 5.24954 47.7303 5.3911 48.1015 5.56735L47.1228 7.77048C46.8615 7.66684 46.5955 7.57518 46.3259 7.49579C46.0521 7.41141 45.7165 7.3711 45.319 7.3711C44.3712 7.3711 43.6221 7.69454 43.0634 8.3386C42.5084 8.9836 42.229 9.85172 42.229 10.9402C42.229 11.5852 42.3696 12.1073 42.6509 12.5058C42.9321 12.9052 43.4515 13.1039 44.2052 13.1039C44.5774 13.1039 44.9365 13.0655 45.2806 12.9905C45.6274 12.9145 45.9331 12.8189 46.2021 12.7064L46.414 14.9639C46.0549 15.1017 45.6584 15.2264 45.2234 15.3352C44.7884 15.4411 44.2699 15.4945 43.669 15.4945C42.8749 15.4945 42.2037 15.3802 41.6534 15.1542C41.104 14.9245 40.6502 14.6199 40.2921 14.2336C39.9324 13.8462 39.6662 13.3815 39.514 12.8752C39.3524 12.3466 39.2712 11.7967 39.2731 11.2439ZM51.8937 15.4955C51.2149 15.4955 50.6262 15.3923 50.1265 15.1908C49.6532 15.0066 49.2295 14.7145 48.889 14.3377C48.5567 13.9593 48.3056 13.5167 48.1512 13.0373C47.9791 12.5013 47.8952 11.9409 47.9028 11.378C47.9028 10.6167 48.0265 9.85735 48.2759 9.09891C48.5162 8.35428 48.8905 7.65977 49.3803 7.04954C49.8697 6.43826 50.4762 5.93084 51.1643 5.55704C51.8665 5.17266 52.6737 4.9786 53.5812 4.9786C54.2468 4.9786 54.8328 5.08173 55.339 5.28329C55.8424 5.48579 56.2578 5.77079 56.5859 6.13735C56.9112 6.50579 57.1578 6.93798 57.3237 7.4386C57.4906 7.93735 57.5731 8.49141 57.5731 9.09797C57.5731 9.85735 57.4512 10.6167 57.2093 11.377C56.9757 12.1188 56.6119 12.8131 56.1349 13.4273C55.653 14.0416 55.0482 14.5486 54.3593 14.9161C53.6496 15.3014 52.8274 15.4955 51.8937 15.4955ZM53.3131 7.37204C52.8912 7.37204 52.5199 7.49298 52.2012 7.7311C51.875 7.97909 51.601 8.28909 51.3949 8.64329C51.1765 9.01079 51.0143 9.41204 50.9046 9.84891C50.8002 10.2548 50.7457 10.672 50.7424 11.0911C50.7424 11.7248 50.8456 12.218 51.049 12.5733C51.2553 12.9267 51.6246 13.1039 52.1628 13.1039C52.5846 13.1039 52.9549 12.9839 53.2756 12.743C53.5943 12.503 53.8634 12.1992 54.0818 11.8317C54.2984 11.4661 54.4624 11.063 54.5721 10.627C54.679 10.1911 54.7343 9.77579 54.7343 9.38391C54.7343 8.75204 54.6312 8.25704 54.4268 7.90266C54.2215 7.54923 53.8503 7.37204 53.3131 7.37204ZM60.6687 15.2339H57.8252L60.2243 5.25048H63.0856L60.6687 15.2339ZM62.0478 4.0336C61.661 4.03713 61.2836 3.91399 60.9734 3.68298C60.6537 3.45048 60.4924 3.09235 60.4924 2.61048C60.4924 2.34516 60.5487 2.09673 60.6565 1.86141C60.7643 1.62704 60.9096 1.42548 61.0887 1.25391C61.2668 1.08423 61.4768 0.948288 61.7121 0.845163C61.9484 0.744851 62.2015 0.694226 62.4696 0.694226C62.8662 0.694226 63.2253 0.811413 63.5449 1.04485C63.8637 1.27923 64.0259 1.63829 64.0259 2.11735C64.0259 2.3836 63.9687 2.63298 63.8609 2.86735C63.7572 3.09579 63.6108 3.3023 63.4296 3.47579C63.2479 3.64721 63.0371 3.78498 62.8071 3.88266C62.569 3.98579 62.3168 4.0336 62.0478 4.0336ZM65.1312 5.70329C65.3468 5.64141 65.5878 5.56641 65.8493 5.48485C66.4947 5.29035 67.157 5.15726 67.8274 5.08735C68.2296 5.04048 68.6881 5.01891 69.1981 5.01891C70.6962 5.01891 71.7293 5.45016 72.2993 6.31079C72.8684 7.17141 72.9668 8.34891 72.5974 9.84141L71.2906 15.232H68.4312L69.6978 9.95485C69.7756 9.62485 69.8356 9.30704 69.8806 8.99579C69.9272 8.72562 69.924 8.44919 69.8712 8.18016C69.8242 7.95421 69.6987 7.75224 69.5168 7.61016C69.3293 7.46485 69.0462 7.39173 68.6618 7.39173C68.2915 7.39173 67.9146 7.4311 67.5303 7.50704L65.6684 15.232H62.8071L65.1312 5.70329Z" fill="white"/>
</svg>
