<svg width="79" height="16" viewBox="0 0 79 16" fill="none" xmlns="http://www.w3.org/2000/svg">
    <path d="M7.83016 10.0706C8.55431 10.2598 10.137 10.6732 10.3886 9.6732C10.6464 8.65072 9.11149 8.31008 8.36252 8.14386C8.27883 8.12529 8.20495 8.10889 8.14449 8.09397L7.65715 10.0262C7.7068 10.0384 7.76501 10.0536 7.83016 10.0706Z" fill="white"/>
    <path d="M8.513 7.24718C9.11675 7.40653 10.4337 7.75413 10.6631 6.84524C10.8973 5.91558 9.61738 5.63534 8.99228 5.49848C8.92196 5.48308 8.85993 5.4695 8.80927 5.45702L8.36743 7.20948C8.40916 7.21977 8.45814 7.2327 8.513 7.24718Z" fill="white"/>
    <path fill-rule="evenodd" clip-rule="evenodd" d="M6.89244 15.7619C11.2262 16.8306 15.615 14.2224 16.6953 9.93671C17.7757 5.65078 15.1388 1.30934 10.8053 0.24086C6.47285 -0.827623 2.08402 1.78083 1.00419 6.06702C-0.0766541 10.3525 2.56049 14.6934 6.89244 15.7619ZM10.6373 4.84252C11.7578 5.22427 12.5773 5.79651 12.4163 6.86099C12.2998 7.64023 11.863 8.01748 11.2831 8.14972C12.0793 8.55972 12.4845 9.18845 12.0986 10.2784C11.6196 11.6322 10.4816 11.7464 8.96826 11.4632L8.60099 12.9189L7.71352 12.7001L8.07599 11.2639C7.84597 11.2074 7.61089 11.1474 7.36874 11.0824L7.005 12.5254L6.11855 12.3067L6.48581 10.8482C6.40296 10.8272 6.31958 10.8057 6.23562 10.784C6.10953 10.7515 5.9821 10.7186 5.85313 10.6867L4.69823 10.4019L5.13881 9.3972C5.13881 9.3972 5.79273 9.5692 5.78388 9.55645C6.03513 9.61794 6.1466 9.45595 6.19058 9.34795L6.77094 7.04674C6.79269 7.0519 6.81399 7.05719 6.83453 7.06228C6.84479 7.06483 6.85487 7.06732 6.86472 7.06974C6.82933 7.05574 6.79722 7.04674 6.77245 7.04049L7.18649 5.39776C7.19736 5.21126 7.1324 4.97602 6.77296 4.88727C6.78686 4.87802 6.1284 4.72877 6.1284 4.72877L6.36449 3.79129L7.58839 4.09353L7.58738 4.09804C7.7714 4.14329 7.96097 4.18628 8.15409 4.22978L8.51782 2.7883L9.40479 3.00705L9.04839 4.42028C9.28649 4.47403 9.52612 4.52828 9.75943 4.58578L10.1133 3.1818L11.0008 3.40055L10.6373 4.84252Z" fill="white"/>
    <path d="M24.4658 4.841C25.1217 4.841 25.6884 4.95724 26.1647 5.18549C26.6432 5.41598 27.038 5.72648 27.3547 6.11698C27.6671 6.50947 27.8997 6.96821 28.0498 7.49395C28.1989 8.0212 28.2738 8.58794 28.2738 9.19468C28.2738 10.1267 28.1011 11.0072 27.7526 11.8371C27.404 12.6684 26.9311 13.3894 26.3295 14.0044C25.7284 14.6186 25.0186 15.1028 24.2001 15.4606C23.3829 15.8186 22.4945 15.9976 21.5405 15.9976C21.4172 15.9976 21.2003 15.9941 20.8939 15.9878C20.5876 15.9816 20.2355 15.9503 19.8411 15.8976C19.4443 15.8428 19.0247 15.7618 18.5816 15.6533C18.1387 15.5468 17.7181 15.3976 17.322 15.2081L20.8638 0.489318L24.0361 0.00307423L22.7679 5.22624C23.0394 5.10525 23.3129 5.01149 23.5859 4.94324C23.8591 4.87599 24.1524 4.841 24.4658 4.841ZM21.8049 13.5086C22.2826 13.5086 22.7328 13.3924 23.1557 13.1641C23.5798 12.9356 23.9459 12.6271 24.2525 12.2429C24.5591 11.8569 24.8017 11.4221 24.9787 10.9364C25.1556 10.4507 25.2451 9.94392 25.2451 9.41668C25.2451 8.76894 25.1356 8.26369 24.9175 7.89845C24.6994 7.53471 24.2957 7.35171 23.7095 7.35171C23.5174 7.35171 23.2699 7.38795 22.9631 7.4527C22.6552 7.52145 22.3797 7.6642 22.1327 7.87895L20.7824 13.4259C20.8638 13.4401 20.9359 13.4536 20.9973 13.4664C21.0575 13.4801 21.1239 13.4899 21.1902 13.4966C21.2602 13.5044 21.3403 13.5084 21.4371 13.5084C21.5339 13.5084 21.655 13.5086 21.8049 13.5086Z" fill="white"/>
    <path d="M31.5636 15.7161H28.5336L31.0924 5.06701H34.1431L31.5636 15.7161ZM33.038 3.76953C32.6151 3.76953 32.2317 3.64503 31.8914 3.39554C31.5484 3.14754 31.3786 2.7658 31.3786 2.2513C31.3786 1.96831 31.4367 1.70281 31.552 1.45231C31.669 1.20232 31.8219 0.987074 32.0135 0.804077C32.2049 0.62258 32.4265 0.477579 32.6783 0.368331C32.9316 0.260832 33.201 0.207086 33.4882 0.207086C33.9108 0.207086 34.2922 0.331585 34.6337 0.581081C34.9739 0.831827 35.1451 1.21357 35.1451 1.72531C35.1451 2.00931 35.0872 2.2758 34.9709 2.5258C34.8554 2.77579 34.7025 2.99104 34.5109 3.17404C34.321 3.35578 34.0973 3.50028 33.8461 3.60853C33.5926 3.71778 33.3241 3.76953 33.038 3.76953Z" fill="white"/>
    <path d="M36.7985 2.41344L39.972 1.92719L39.1927 5.06614H42.5915L41.9777 7.5356H38.5995L37.6996 11.2605C37.6167 11.571 37.5697 11.861 37.5566 12.1305C37.5417 12.4013 37.5763 12.6338 37.6582 12.8295C37.7396 13.0258 37.8859 13.177 38.0983 13.284C38.3096 13.3928 38.6121 13.4475 39.009 13.4475C39.3358 13.4475 39.6543 13.4168 39.9622 13.3558C40.2683 13.2958 40.5784 13.2123 40.8924 13.103L41.1183 15.412C40.7089 15.5605 40.2655 15.6882 39.7878 15.7957C39.3093 15.9047 38.7428 15.9572 38.0881 15.9572C37.1468 15.9572 36.4171 15.819 35.8971 15.5437C35.3779 15.2665 35.0109 14.8877 34.7913 14.4082C34.5746 13.9305 34.4778 13.3798 34.5049 12.7593C34.5329 12.1373 34.6277 11.4835 34.7913 10.7951L36.7985 2.41344Z" fill="white"/>
    <path d="M42.4579 11.4633C42.4579 10.5461 42.6081 9.68108 42.9081 8.87135C43.2076 8.06086 43.6391 7.35212 44.199 6.74388C44.7569 6.13864 45.4366 5.65914 46.2366 5.30715C47.0328 4.95716 47.9243 4.78066 48.9068 4.78066C49.5218 4.78066 50.0711 4.83816 50.5544 4.95341C51.0397 5.06966 51.4787 5.21991 51.8758 5.40841L50.8309 7.75837C50.5579 7.64887 50.2745 7.55237 49.9816 7.46487C49.6884 7.37562 49.3305 7.33262 48.9071 7.33262C47.8957 7.33262 47.0962 7.67736 46.5012 8.3646C45.9085 9.05234 45.61 9.97808 45.61 11.1393C45.61 11.8275 45.7601 12.384 46.0614 12.8098C46.3612 13.2355 46.915 13.4473 47.7191 13.4473C48.1159 13.4473 48.4988 13.4063 48.8656 13.3263C49.2352 13.2453 49.5615 13.1433 49.8489 13.0228L50.0751 15.4317C49.6919 15.5787 49.2693 15.7115 48.8057 15.8277C48.3411 15.94 47.7881 15.9982 47.1468 15.9982C46.3003 15.9982 45.5837 15.8757 44.9975 15.6345C44.4111 15.3895 43.9265 15.0642 43.5448 14.6523C43.1611 14.2393 42.8856 13.757 42.7152 13.2035C42.5449 12.6505 42.4579 12.0695 42.4579 11.4633Z" fill="white"/>
    <path d="M55.9178 15.9982C55.1947 15.9982 54.5665 15.8892 54.0337 15.6735C53.5024 15.4577 53.0623 15.155 52.7142 14.7625C52.3657 14.372 52.1048 13.9093 51.9261 13.376C51.7474 12.843 51.6615 12.2528 51.6615 11.6061C51.6615 10.7948 51.7932 9.98383 52.0593 9.17509C52.3242 8.3646 52.7173 7.63637 53.2375 6.98913C53.7536 6.34089 54.3904 5.81089 55.1401 5.39765C55.889 4.98715 56.7505 4.78066 57.7181 4.78066C58.4281 4.78066 59.0529 4.88991 59.5931 5.10565C60.1307 5.3209 60.5736 5.62615 60.9237 6.01664C61.27 6.40914 61.5331 6.86988 61.71 7.40387C61.8882 7.93586 61.9762 8.5276 61.9762 9.17484C61.9762 9.98358 61.8463 10.7946 61.5885 11.6058C61.3304 12.413 60.9474 13.143 60.4419 13.7918C59.9374 14.439 59.3065 14.9688 58.5487 15.3802C57.7919 15.7917 56.9142 15.9982 55.9178 15.9982ZM57.4322 7.33287C56.983 7.33287 56.5859 7.46187 56.2459 7.71661C55.9047 7.97436 55.618 8.29836 55.387 8.6891C55.1535 9.08159 54.9803 9.50959 54.8633 9.97483C54.7473 10.4411 54.6904 10.8818 54.6904 11.3006C54.6904 11.9763 54.8006 12.5025 55.0172 12.8813C55.2369 13.258 55.6315 13.4475 56.205 13.4475C56.6557 13.4475 57.0507 13.3195 57.3927 13.062C57.732 12.8063 58.0189 12.482 58.2517 12.0905C58.4837 11.7 58.6584 11.2708 58.7754 10.8048C58.8899 10.3401 58.9483 9.89683 58.9483 9.47884C58.9483 8.80485 58.8386 8.27736 58.6199 7.89911C58.4015 7.52237 58.0052 7.33287 57.4322 7.33287Z" fill="white"/>
    <path d="M65.2779 15.7161H62.2454L64.8042 5.06701H67.8564L65.2779 15.7161ZM66.75 3.76953C66.3274 3.76953 65.9442 3.64503 65.6045 3.39554C65.2632 3.14754 65.0918 2.7658 65.0918 2.2513C65.0918 1.96831 65.1507 1.70281 65.2662 1.45231C65.3818 1.20232 65.5357 0.987074 65.7273 0.804077C65.9176 0.62258 66.1413 0.477579 66.3926 0.368331C66.6443 0.260832 66.9138 0.207086 67.1999 0.207086C67.6236 0.207086 68.0063 0.331585 68.347 0.581081C68.688 0.831827 68.8601 1.21357 68.8601 1.72531C68.8601 2.00931 68.7989 2.2758 68.6844 2.5258C68.5699 2.77579 68.416 2.99104 68.2252 3.17404C68.0331 3.35578 67.8121 3.50028 67.5604 3.60853C67.3066 3.71778 67.0377 3.76953 66.75 3.76953Z" fill="white"/>
    <path d="M70.04 5.55112C70.27 5.48462 70.5268 5.40462 70.8061 5.31763C71.0864 5.23063 71.3996 5.14963 71.7494 5.07663C72.0955 5.00138 72.486 4.94038 72.9155 4.89313C73.3449 4.84488 73.8343 4.82138 74.378 4.82138C75.976 4.82138 77.0776 5.28163 77.6857 6.19936C78.2934 7.1171 78.3985 8.37308 78.0042 9.96505L76.6104 15.715H73.5605L74.9113 10.0861C74.9937 9.73456 75.0584 9.39481 75.1062 9.06281C75.1545 8.73382 75.1517 8.44383 75.0953 8.19283C75.0415 7.94484 74.9146 7.74184 74.7177 7.58459C74.5178 7.42984 74.2157 7.35209 73.806 7.35209C73.4109 7.35209 73.009 7.39409 72.5987 7.47509L70.6127 15.7147H67.5616L70.04 5.55112Z" fill="white"/>
</svg>
