<svg width="83" height="24" viewBox="0 0 83 24" fill="none" xmlns="http://www.w3.org/2000/svg">
    <path d="M9.46899 19.1159C4.31502 19.1159 0.125732 14.8341 0.125732 9.55104C0.125732 4.28864 4.31502 -1.05705e-07 9.46899 0.00690592C11.3039 0.00690592 13.1051 0.566294 14.6297 1.6022C9.74557 5.69747 9.71184 13.4253 14.6297 17.5206C13.1051 18.5496 11.3039 19.1159 9.46899 19.1159Z" fill="white"/>
    <path d="M15.2368 17.0648C19.9928 13.2665 19.9726 5.86322 15.2368 2.04418C10.5011 5.86322 10.4809 13.2734 15.2368 17.0648Z" fill="white"/>
    <path d="M4.64557 21.3189C5.25272 21.3396 5.63724 21.7333 5.63724 22.3341H5.65073V23.9225H5.09756C5.09756 23.7097 5.1007 23.5132 5.10358 23.3331C5.11957 22.3328 5.1275 21.8369 4.54438 21.8369C3.89417 21.8369 3.90739 22.4142 3.9287 23.3451C3.93282 23.5249 3.93724 23.7179 3.93724 23.9225H3.4043C3.4043 23.7122 3.40743 23.5175 3.41031 23.3387C3.42631 22.3431 3.43445 21.8369 2.85113 21.8369C2.20178 21.8369 2.2141 22.3836 2.23537 23.3272C2.23951 23.511 2.24399 23.7097 2.24399 23.9225H1.69081V21.388H2.24399V21.6918C2.44637 21.4156 2.70272 21.3189 2.95907 21.3189C3.34359 21.3189 3.62018 21.4847 3.78208 21.7678C4.0047 21.4156 4.33526 21.3189 4.64557 21.3189Z" fill="white"/>
    <path fill-rule="evenodd" clip-rule="evenodd" d="M8.13327 21.388H8.66621V23.9294H8.13327V23.6117C7.95113 23.8534 7.69478 23.9846 7.34399 23.9846C6.64914 23.9846 6.11621 23.4252 6.11621 22.6518C6.11621 21.8852 6.64914 21.3189 7.34399 21.3189C7.69478 21.3189 7.95113 21.4639 8.13327 21.6918V21.388ZM6.66264 22.6518C6.66264 22.2029 6.93922 21.8438 7.41819 21.8438C7.85668 21.8438 8.14676 22.2029 8.15351 22.6518C8.15351 23.1214 7.85668 23.4598 7.41819 23.4598C6.93922 23.4598 6.66264 23.1007 6.66264 22.6518Z" fill="white"/>
    <path d="M10.4104 22.3882C10.853 22.4564 11.3984 22.5404 11.3984 23.1559C11.3984 24.0882 9.9547 24.1987 9.19914 23.6739L9.43526 23.2388C9.92097 23.5841 10.8317 23.6186 10.8317 23.1835C10.8317 22.9955 10.5766 22.9523 10.2737 22.901C9.83128 22.8261 9.28684 22.7339 9.28684 22.1476C9.28684 21.167 10.69 21.1601 11.3241 21.5813L11.1015 22.0302C10.6563 21.7747 9.85351 21.7125 9.85351 22.1062C9.85351 22.3024 10.108 22.3416 10.4104 22.3882Z" fill="white"/>
    <path d="M13.638 23.3286L13.7864 23.7982C13.4289 24.0399 12.2618 24.2609 12.2618 23.0454V21.8921H11.7491V21.388H12.2618V20.6145H12.815V21.388H13.6987V21.899H12.815V23.0454C12.815 23.6324 13.3817 23.4736 13.638 23.3286Z" fill="white"/>
    <path fill-rule="evenodd" clip-rule="evenodd" d="M16.5388 22.8728H14.6837C14.8388 23.6117 15.6349 23.6531 16.161 23.2112L16.4174 23.6255C15.6618 24.2954 14.1372 24.0606 14.1372 22.6449C14.1372 21.8576 14.6499 21.312 15.365 21.312C16.0396 21.312 16.5388 21.754 16.5388 22.8728ZM14.7039 22.4239C14.7579 22.0648 14.9805 21.823 15.3448 21.823C15.6956 21.823 15.9317 22.0302 15.9924 22.4239H14.7039Z" fill="white"/>
    <path d="M17.6452 21.6918C17.888 21.2637 18.3603 21.2498 18.6706 21.388L18.5087 21.9128C18.286 21.7954 17.6452 21.6918 17.6452 22.4929V23.9225H17.092V21.388H17.6452V21.6918Z" fill="white"/>
    <path d="M20.7821 22.0717C20.1682 21.609 19.3857 21.8645 19.3857 22.6518C19.3857 23.4252 20.1614 23.6946 20.7821 23.2457L21.0384 23.6946C20.3436 24.3023 18.8325 24.0261 18.8325 22.6587C18.8325 21.3396 20.2559 20.9943 21.0384 21.6228L20.7821 22.0717Z" fill="white"/>
    <path fill-rule="evenodd" clip-rule="evenodd" d="M23.3321 21.388H23.8853V23.9294H23.3321V23.6117C22.8261 24.3576 21.315 23.9777 21.315 22.6518C21.315 21.3603 22.7722 20.9322 23.3321 21.6918V21.388ZM21.8817 22.6518C21.8817 22.2029 22.1583 21.8438 22.617 21.8438C23.0757 21.8438 23.3726 22.2029 23.3726 22.6518C23.3726 23.1214 23.0757 23.4598 22.617 23.4598C22.1583 23.4598 21.8817 23.1007 21.8817 22.6518Z" fill="white"/>
    <path d="M25.1333 21.6918C25.4166 21.1877 25.9968 21.3051 26.1587 21.388L25.9968 21.9128C25.7404 21.7816 25.1333 21.7333 25.1333 22.4929V23.9225H24.6003V21.388H25.1333V21.6918Z" fill="white"/>
    <path fill-rule="evenodd" clip-rule="evenodd" d="M28.3444 20.359H28.8773V23.9294H28.3444V23.6117C27.8452 24.3507 26.3273 23.9915 26.3273 22.6518C26.3273 21.3396 27.7912 20.9391 28.3444 21.6918V20.359ZM27.6293 23.4598C28.0745 23.4598 28.3849 23.1214 28.3849 22.6518C28.3849 22.2029 28.0745 21.8438 27.6293 21.8438C27.1706 21.8438 26.8737 22.2029 26.8737 22.6518C26.8737 23.1007 27.1706 23.4598 27.6293 23.4598Z" fill="white"/>
    <path d="M21.0047 0C26.1587 0 30.348 4.28864 30.348 9.55104C30.348 14.8341 26.1587 19.1159 21.0047 19.109C19.1833 19.109 17.3686 18.5496 15.844 17.5137C20.7821 13.4391 20.7079 5.69057 15.844 1.59529C17.3686 0.566294 19.1698 0 21.0047 0Z" fill="white"/>
    <path d="M46.3645 18.807L44.8533 7.82363L48.5208 10.1598L42.348 5.20649H48.2808L48.8811 11.6669C48.9566 12.4342 49.0174 13.1878 49.0747 13.9632C49.3832 13.221 49.7424 12.4092 50.158 11.514L53.0969 5.20649H56.9986L50.0793 18.8069L46.3645 18.807Z" fill="white"/>
    <path d="M56.1697 18.807L58.7179 5.20664H62.2097L59.6648 18.807H56.1697Z" fill="white"/>
    <path d="M65.5652 19C63.9718 19 62.5317 18.6289 61.7142 18.0066L61.4744 17.8216L62.6545 14.87L63.0497 15.1098C63.8425 15.5905 64.8547 15.8714 65.8275 15.8714C66.5707 15.8714 67.4434 15.5791 67.4434 14.7638C67.4434 14.3379 67.1991 13.9634 65.9503 13.3091C64.6261 12.5839 63.1138 11.5039 63.1138 9.55705C63.1138 6.87488 65.3254 5 68.4905 5C69.7855 5 70.8225 5.22953 71.6557 5.69534L71.9507 5.85983L70.8349 8.89136L70.4362 8.66983C70.2808 8.5819 69.4375 8.1491 68.3441 8.1491C67.2204 8.1491 66.7429 8.64469 66.7429 9.10248C66.7429 9.59344 67.3611 9.98282 68.3834 10.5617C70.202 11.53 71.0893 12.7518 71.0893 14.2921C71.0894 17.108 68.8712 19 65.5652 19Z" fill="white"/>
    <path fill-rule="evenodd" clip-rule="evenodd" d="M79.2463 18.807L78.985 15.4854H75.9595L74.4586 18.807H70.7158L77.2443 5.20664H81.3024L82.8743 18.807H79.2463ZM78.5284 9.38868C78.3888 9.75293 78.2458 10.0989 78.1051 10.4049L77.1074 12.6028H78.8055L78.596 10.2769C78.5809 10.0423 78.5595 9.77563 78.5366 9.49078L78.5365 9.48944L78.5284 9.38868Z" fill="white"/>
</svg>
