<svg width="24" height="21" viewBox="0 0 24 21" fill="none" xmlns="http://www.w3.org/2000/svg">
    <path d="M0.782924 0C0.350603 0 0 0.350589 0 0.782924C0 1.21524 0.350407 1.56585 0.782924 1.56585H3.80026L6.4914 14.2634C6.59789 14.7414 6.91116 15.1391 7.3069 15.136H20.3548C20.7684 15.1419 21.1489 14.7669 21.1489 14.3531C21.1489 13.9395 20.7684 13.5644 20.3548 13.5702H7.94298L7.60859 12.0043H21.3989C21.7495 12.0018 22.0806 11.7348 22.1572 11.3927L23.9839 3.56395C24.0856 3.10961 23.6912 2.61322 23.2255 2.60973H5.62712L5.20299 0.619964C5.12891 0.272287 4.79178 -0.000233076 4.43647 0.000139723L0.782924 0ZM8.98454 15.4712C7.55252 15.4712 6.37495 16.6488 6.37495 18.0808C6.37495 19.5128 7.55252 20.6904 8.98454 20.6904C10.4165 20.6904 11.5941 19.5128 11.5941 18.0808C11.5941 16.6488 10.4165 15.4712 8.98454 15.4712ZM19.2086 15.4712C17.7766 15.4712 16.599 16.6488 16.599 18.0808C16.599 19.5128 17.7766 20.6904 19.2086 20.6904C20.6406 20.6904 21.8182 19.5128 21.8182 18.0808C21.8182 16.6488 20.6406 15.4712 19.2086 15.4712ZM8.98454 17.0371C9.5703 17.0371 10.0283 17.4951 10.0283 18.0808C10.0283 18.6666 9.57029 19.1246 8.98454 19.1246C8.39878 19.1246 7.94079 18.6664 7.94079 18.0808C7.94079 17.4951 8.39896 17.0371 8.98454 17.0371ZM19.2086 17.0371C19.7944 17.0371 20.2523 17.4951 20.2523 18.0808C20.2523 18.6666 19.7943 19.1246 19.2086 19.1246C18.6228 19.1246 18.1649 18.6664 18.1649 18.0808C18.1649 17.4951 18.623 17.0371 19.2086 17.0371Z" fill="#2C64F1"/>
</svg>
