<svg width="102" height="22" viewBox="0 0 102 22" fill="none" xmlns="http://www.w3.org/2000/svg">
    <path d="M6.846 8.03759L0.172413 11.0728L6.846 15.0154L13.5173 11.0728L6.846 8.03759Z" fill="white"/>
    <path d="M0.172413 11.0728L6.846 15.0154L6.846 0L0.172413 11.0728Z" fill="white"/>
    <path d="M6.846 0L6.846 15.0154L13.5173 11.0728L6.846 0Z" fill="white"/>
    <path d="M0.172413 12.3374L6.846 21.739V16.28L0.172413 12.3374Z" fill="white"/>
    <path d="M6.846 16.28V21.739L13.5219 12.3374L6.846 16.28Z" fill="white"/>
    <path d="M26.9859 12.3124C26.9859 12.4861 26.8349 12.6272 26.6543 12.6272H20.2592C20.4185 14.143 21.608 15.5267 23.28 15.5267C24.4232 15.5267 25.2721 15.1072 25.9109 14.2325C26.0027 14.1111 26.1415 14.0345 26.3183 14.1073C26.3645 14.1262 26.4053 14.1563 26.4368 14.195C26.4684 14.2337 26.4897 14.2797 26.4988 14.3288C26.512 14.4029 26.4969 14.4793 26.4563 14.5428C25.8138 15.62 24.5325 16.148 23.2762 16.148C21.1248 16.148 19.5916 14.3008 19.5916 12.3246C19.5916 10.3483 21.1248 8.5011 23.2762 8.5011C25.4277 8.49731 26.9821 10.3408 26.9859 12.3124ZM26.3016 12.0143C26.1628 10.497 24.9528 9.11483 23.28 9.11483C21.608 9.11483 20.4192 10.4978 20.2592 12.0143H26.3016ZM34.7466 8.65055C34.829 8.65049 34.9082 8.68239 34.9677 8.73954C35.0271 8.79669 35.062 8.87465 35.0652 8.95703C35.0652 9.13455 34.9271 9.26352 34.7466 9.26352H33.0321V15.7201C33.0284 15.8023 32.9932 15.88 32.934 15.937C32.8747 15.994 32.7957 16.0261 32.7134 16.0266C32.6307 16.0271 32.5511 15.9954 32.4914 15.9382C32.4316 15.881 32.3965 15.8028 32.3933 15.7201V9.26428H30.7471C30.562 9.26428 30.427 9.13076 30.427 8.95703C30.427 8.80379 30.5658 8.65055 30.7463 8.65055H32.3933V6.28745C32.3933 6.138 32.4988 6.00145 32.6497 5.97641C32.8644 5.94455 33.0321 6.08565 33.0321 6.27986V8.65055H34.7466ZM45.2041 11.7723V15.6837C45.2041 15.8612 45.0448 15.9902 44.8855 15.9902C44.7004 15.9902 44.5654 15.8574 44.5654 15.6837V11.7723C44.5654 10.453 43.7886 9.13455 42.2546 9.13455C40.2883 9.13455 39.4401 10.7838 39.5532 12.474C39.5532 12.518 39.5744 12.716 39.5744 12.7357V15.6716C39.5754 15.7454 39.5502 15.8172 39.5032 15.8741C39.4563 15.9311 39.3906 15.9695 39.318 15.9826C39.1033 16.0145 38.9357 15.8734 38.9357 15.6792V2.83193C38.9357 2.67869 39.0737 2.52545 39.2543 2.52545C39.337 2.52499 39.4166 2.55672 39.4764 2.61391C39.5361 2.6711 39.5713 2.74929 39.5744 2.83193V10.1033C40.1244 9.15959 41.1076 8.52234 42.2508 8.52234C44.1284 8.52234 45.2041 10.1026 45.2041 11.7723ZM56.6707 12.3124C56.6707 12.4861 56.519 12.6272 56.3384 12.6272H49.9394C50.0988 14.143 51.2883 15.5267 52.9603 15.5267C54.1035 15.5267 54.9517 15.1072 55.5904 14.2325C55.683 14.1111 55.8218 14.0345 55.9978 14.1073C56.0442 14.1261 56.0851 14.1562 56.1168 14.1949C56.1485 14.2336 56.1699 14.2797 56.1791 14.3288C56.1923 14.4029 56.1772 14.4793 56.1366 14.5428C55.4941 15.62 54.2128 16.148 52.9565 16.148C50.805 16.148 49.2711 14.3008 49.2711 12.3246C49.2711 10.3483 50.805 8.5011 52.9565 8.5011C55.111 8.49731 56.6661 10.3408 56.6707 12.3124ZM55.9811 12.0143C55.8423 10.497 54.6323 9.11483 52.9603 9.11483C51.2883 9.11483 50.0988 10.4978 49.9394 12.0143H55.9811ZM64.5186 8.93655C64.5186 9.13379 64.4048 9.24303 64.2205 9.26655C62.3421 9.52903 61.4978 11.0008 61.4978 12.7152V15.6511C61.4986 15.7249 61.4734 15.7966 61.4264 15.8535C61.3795 15.9104 61.3139 15.9489 61.2414 15.9621C61.0274 15.994 60.859 15.8521 60.859 15.6587V8.96841C60.859 8.81896 60.9645 8.68241 61.1154 8.65738C61.3301 8.62552 61.4978 8.76662 61.4978 8.96083V10.3233C62.0235 9.46834 63.078 8.65434 64.1742 8.65434C64.3335 8.64979 64.5186 8.76283 64.5186 8.93655ZM75.0232 12.3124C75.0232 12.4854 74.8715 12.6265 74.691 12.6265H68.2958C68.4559 14.1422 69.6446 15.5259 71.3174 15.5259C72.4599 15.5259 73.3088 15.1064 73.9475 14.2317C74.0401 14.1103 74.1781 14.0337 74.3549 14.1066C74.4011 14.1254 74.4419 14.1556 74.4734 14.1943C74.505 14.233 74.5263 14.279 74.5354 14.3281C74.5521 14.429 74.5225 14.4851 74.4937 14.542C73.8504 15.6192 72.5691 16.1472 71.3128 16.1472C69.1614 16.1472 67.6282 14.3 67.6282 12.3238C67.6282 10.3476 69.1614 8.50034 71.3128 8.50034C73.4643 8.49655 75.0187 10.34 75.0225 12.3117L75.0232 12.3124ZM74.3382 12.0135C74.1994 10.4963 72.9894 9.11407 71.3174 9.11407C69.6446 9.11407 68.4559 10.497 68.2958 12.0135H74.3382ZM85.3465 9.01317V15.7194C85.3465 15.8969 85.1865 16.0259 85.0272 16.0259C84.8421 16.0259 84.7078 15.8931 84.7078 15.7194V14.4449C84.1821 15.4577 83.2414 16.1791 82.0519 16.1791C80.153 16.1791 79.0985 14.5981 79.0985 12.9284V8.99724C79.0985 8.844 79.2374 8.69076 79.4179 8.69076C79.5005 8.6905 79.5799 8.72231 79.6395 8.77948C79.6991 8.83666 79.7342 8.91473 79.7373 8.99724V12.9292C79.7373 14.2484 80.5141 15.5669 82.0481 15.5669C84.1995 15.5669 84.7032 13.6354 84.7032 11.5022V8.99724C84.7032 8.81972 84.8883 8.63841 85.1152 8.7029C85.1816 8.7238 85.2397 8.76512 85.2812 8.82096C85.3227 8.87681 85.3456 8.94358 85.3465 9.01317ZM101.523 11.7472V15.6792C101.523 15.8567 101.363 15.9857 101.203 15.9857C101.018 15.9857 100.884 15.8529 100.884 15.6792V11.7472C100.884 10.428 100.106 9.13379 98.5731 9.13379C96.6485 9.13379 95.9172 11.11 95.9172 12.6462V15.6792C95.9172 15.8567 95.7579 15.9857 95.5978 15.9857C95.4134 15.9857 95.2792 15.8529 95.2792 15.6792V11.7472C95.2792 10.428 94.5016 9.13379 92.9676 9.13379C91.0225 9.13379 90.2199 10.6055 90.2912 12.562C90.2912 12.606 90.3125 12.6948 90.2912 12.7152V15.6708C90.2922 15.7452 90.2665 15.8175 90.2188 15.8746C90.171 15.9316 90.1044 15.9697 90.031 15.9819C89.8163 16.0137 89.6487 15.8726 89.6487 15.6784V8.96841C89.6487 8.81896 89.7534 8.68241 89.9051 8.65738C90.119 8.62552 90.2874 8.76662 90.2874 8.96083V10.0813C90.8374 9.13759 91.8206 8.52083 92.9639 8.52083C94.2664 8.52083 95.2746 9.31131 95.6865 10.4766C96.2115 9.33559 97.241 8.52083 98.5685 8.52083C100.447 8.52083 101.523 10.0775 101.523 11.7472Z" fill="white"/>
</svg>
