<svg width="94" height="32" viewBox="0 0 94 32" fill="none" xmlns="http://www.w3.org/2000/svg">
    <g opacity="0.8">
        <path d="M30.3946 18.6148C30.3946 18.7681 30.2663 18.8929 30.113 18.8929H24.692C24.8282 20.2326 25.8352 21.4542 27.2532 21.4542C27.6921 21.4734 28.1285 21.3782 28.5194 21.1777C28.9103 20.9773 29.2424 20.6786 29.4829 20.3109C29.5624 20.2042 29.6793 20.1361 29.828 20.2008C29.8679 20.2182 29.9028 20.2452 29.9296 20.2795C29.9564 20.3138 29.9742 20.3543 29.9813 20.3972C29.9961 20.4858 29.97 20.5357 29.9473 20.5857C29.4023 21.537 28.3158 22.0048 27.2509 22.0048C25.4277 22.0048 24.1289 20.3734 24.1289 18.6284C24.1289 16.8835 25.4288 15.2521 27.2509 15.2521C29.0731 15.2521 30.3923 16.8755 30.3957 18.6182L30.3946 18.6148ZM29.828 18.3548C29.71 17.0152 28.6848 15.7936 27.2668 15.7936C25.8488 15.7936 24.8407 17.0152 24.7056 18.3548H29.828ZM36.9872 15.3838C37.1439 15.3838 37.2574 15.52 37.2574 15.654C37.2574 15.8106 37.1393 15.9242 36.9872 15.9242H35.534V21.6267C35.534 21.763 35.416 21.8969 35.2638 21.8969C35.1117 21.8969 34.9936 21.7607 34.9936 21.6267V15.9242H33.5972C33.4405 15.9242 33.327 15.8061 33.327 15.654C33.327 15.5177 33.4451 15.3838 33.5972 15.3838H34.9936V13.2925C34.9936 13.1609 35.0822 13.0394 35.2207 13.0178C35.4023 12.9894 35.5442 13.1143 35.5442 13.2846V15.3792L36.9872 15.3838ZM45.8425 18.1402V21.5949C45.8425 21.7516 45.7062 21.8651 45.5723 21.8651C45.4156 21.8651 45.3021 21.7471 45.3021 21.5949V18.1516C45.3021 16.9868 44.6436 15.822 43.3426 15.822C41.676 15.822 40.9562 17.2786 41.0527 18.7715C41.0527 18.8112 41.0708 18.9849 41.0708 19.0031V21.5961C41.0708 21.7278 40.9823 21.8492 40.8438 21.8708C40.6621 21.8992 40.5202 21.7743 40.5202 21.604V10.2568C40.5202 10.1205 40.6383 9.98657 40.7904 9.98657C40.9426 9.98657 41.0606 10.1228 41.0606 10.2568V16.6791C41.5147 15.8458 42.3605 15.2827 43.3289 15.2827C44.9206 15.2827 45.8334 16.6791 45.8334 18.155L45.8425 18.1402ZM55.5538 18.6318C55.5538 18.7851 55.4255 18.91 55.2722 18.91H49.8478C49.984 20.2496 50.991 21.4712 52.409 21.4712C52.8479 21.4905 53.2843 21.3952 53.6752 21.1948C54.0662 20.9943 54.3982 20.6956 54.6387 20.3279C54.7182 20.2212 54.8351 20.1531 54.9839 20.2178C55.0237 20.2352 55.0587 20.2623 55.0854 20.2966C55.1122 20.3309 55.13 20.3713 55.1371 20.4142C55.1519 20.5028 55.1258 20.5527 55.1031 20.6027C54.5581 21.5541 53.4716 22.0218 52.4067 22.0218C50.5835 22.0218 49.2847 20.3904 49.2847 18.6454C49.2847 16.9005 50.5846 15.2691 52.4067 15.2691C54.2289 15.2691 55.5515 16.8926 55.5549 18.6352L55.5538 18.6318ZM54.9702 18.3718C54.8522 17.0322 53.827 15.8106 52.409 15.8106C50.991 15.8106 49.9829 17.0322 49.8478 18.3718H54.9702ZM62.2202 15.654C62.2202 15.8288 62.1237 15.9242 61.967 15.9457C60.3754 16.1773 59.659 17.4784 59.659 18.9906V21.5836C59.659 21.7153 59.5704 21.8368 59.4319 21.8583C59.2503 21.8867 59.1084 21.7618 59.1084 21.5915V15.6823C59.1084 15.5506 59.1969 15.4292 59.3354 15.4076C59.5171 15.3792 59.659 15.5041 59.659 15.6744V16.8778C60.104 16.1228 60.9986 15.4019 61.9273 15.4019C62.0635 15.3985 62.2191 15.4984 62.2191 15.6517L62.2202 15.654ZM71.1232 18.633C71.1232 18.7862 70.9949 18.9111 70.8416 18.9111H65.4206C65.5568 20.2508 66.5638 21.4723 67.9818 21.4723C68.4207 21.4916 68.8571 21.3963 69.248 21.1959C69.639 20.9955 69.971 20.6967 70.2115 20.3291C70.291 20.2224 70.4079 20.1543 70.5567 20.219C70.5965 20.2363 70.6315 20.2634 70.6582 20.2977C70.685 20.332 70.7028 20.3725 70.7099 20.4154C70.7247 20.5039 70.6986 20.5539 70.6759 20.6038C70.1309 21.5552 69.0444 22.0229 67.9795 22.0229C66.1563 22.0229 64.8575 20.3915 64.8575 18.6466C64.8575 16.9016 66.1574 15.2702 67.9795 15.2702C69.8017 15.2702 71.1209 16.8937 71.1243 18.6364L71.1232 18.633ZM70.5567 18.373C70.4386 17.0333 69.4134 15.8118 67.9954 15.8118C66.5775 15.8118 65.5693 17.0333 65.4342 18.373H70.5567ZM79.8888 21.646C79.8888 21.8027 79.7525 21.9162 79.6186 21.9162C79.4619 21.9162 79.3484 21.7982 79.3484 21.646V20.5107C78.9033 21.4042 78.1052 22.0434 77.0971 22.0434C75.4872 22.0434 74.5926 20.647 74.5926 19.1711V15.6971C74.5926 15.5609 74.7107 15.4269 74.8628 15.4269C75.015 15.4269 75.133 15.5631 75.133 15.6971V19.1711C75.133 20.3359 75.7915 21.5007 77.0925 21.5007C78.9158 21.5007 79.3438 19.7944 79.3438 17.9109V15.688C79.3438 15.5313 79.5005 15.3701 79.6924 15.4269C79.8104 15.4666 79.8888 15.5802 79.8888 15.7016V21.646ZM93.6031 18.1164V21.5904C93.6031 21.7471 93.4669 21.8606 93.3329 21.8606C93.1762 21.8606 93.0627 21.7425 93.0627 21.5904V18.1164C93.0627 16.9516 92.4042 15.8084 91.1032 15.8084C89.4718 15.8084 88.8519 17.5533 88.8519 18.9111V21.5904C88.8519 21.7471 88.7157 21.8606 88.5817 21.8606C88.425 21.8606 88.3115 21.7425 88.3115 21.5904V18.1164C88.3115 16.9516 87.653 15.8084 86.352 15.8084C84.7024 15.8084 84.0224 17.1083 84.0837 18.8362C84.0837 18.8759 84.1018 18.9542 84.0837 18.9724V21.5836C84.0837 21.7153 83.9951 21.8368 83.8623 21.8583C83.6806 21.8867 83.5387 21.7618 83.5387 21.5915V15.654C83.5387 15.5223 83.6273 15.4008 83.7658 15.3792C83.9474 15.3508 84.0893 15.4757 84.0893 15.646V16.636C84.5435 15.8027 85.3893 15.2577 86.3577 15.2577C87.4623 15.2577 88.3172 15.9559 88.6657 16.9856C89.1107 15.9775 89.9827 15.2577 91.1089 15.2577C92.7005 15.2577 93.6133 16.6201 93.6133 18.096" fill="white"/>
        <path d="M10.2103 11.8303L0.386688 16.298L10.2103 22.1018L20.03 16.298L10.2103 11.8303Z" fill="white"/>
        <path d="M0.386688 16.2995L10.2103 22.1033V0.000244141L0.386688 16.2995Z" fill="white"/>
        <path d="M10.2103 0.000244141V22.1033L20.0306 16.2995L10.2103 0.000244141Z" fill="white"/>
        <path d="M0.386688 18.1604L10.2103 31.9999V23.9642L0.386688 18.1604Z" fill="white"/>
        <path d="M10.2103 23.9642V31.9999L20.0383 18.1604L10.2103 23.9642Z" fill="white"/>
    </g>
</svg>
