<svg width="171" height="34" viewBox="0 0 171 34" fill="none" xmlns="http://www.w3.org/2000/svg">
    <path d="M50.5457 24.004C50.3724 23.588 50.1384 23.0593 49.8437 22.418C49.5664 21.7767 49.263 21.0833 48.9337 20.338C48.6044 19.5927 48.249 18.83 47.8677 18.05C47.5037 17.2527 47.157 16.5073 46.8277 15.814C46.4984 15.1033 46.1864 14.4707 45.8917 13.916C45.6144 13.3613 45.389 12.9367 45.2157 12.642C45.025 14.6873 44.869 16.906 44.7477 19.298C44.6264 21.6727 44.5224 24.0733 44.4357 26.5H41.9657C42.035 24.94 42.113 23.3713 42.1997 21.794C42.2864 20.1993 42.3817 18.6393 42.4857 17.114C42.607 15.5713 42.7284 14.072 42.8497 12.616C42.9884 11.16 43.1357 9.782 43.2917 8.482H45.5017C45.9697 9.24466 46.4724 10.146 47.0097 11.186C47.547 12.226 48.0844 13.318 48.6217 14.462C49.159 15.5887 49.679 16.724 50.1817 17.868C50.6844 18.9947 51.1437 20.026 51.5597 20.962C51.9757 20.026 52.435 18.9947 52.9377 17.868C53.4404 16.724 53.9604 15.5887 54.4977 14.462C55.035 13.318 55.5724 12.226 56.1097 11.186C56.647 10.146 57.1497 9.24466 57.6177 8.482H59.8277C60.417 14.2887 60.859 20.2947 61.1537 26.5H58.6837C58.597 24.0733 58.493 21.6727 58.3717 19.298C58.2504 16.906 58.0944 14.6873 57.9037 12.642C57.7304 12.9367 57.4964 13.3613 57.2017 13.916C56.9244 14.4707 56.621 15.1033 56.2917 15.814C55.9624 16.5073 55.607 17.2527 55.2257 18.05C54.8617 18.83 54.515 19.5927 54.1857 20.338C53.8564 21.0833 53.5444 21.7767 53.2497 22.418C52.9724 23.0593 52.747 23.588 52.5737 24.004H50.5457Z" fill="white"/>
    <path d="M69.5281 24.758C70.1001 24.758 70.6028 24.7493 71.0361 24.732C71.4868 24.6973 71.8595 24.6453 72.1541 24.576V20.546C71.9808 20.4593 71.6948 20.39 71.2961 20.338C70.9148 20.2687 70.4468 20.234 69.8921 20.234C69.5281 20.234 69.1381 20.26 68.7221 20.312C68.3235 20.364 67.9508 20.4767 67.6041 20.65C67.2748 20.806 66.9975 21.0313 66.7721 21.326C66.5468 21.6033 66.4341 21.976 66.4341 22.444C66.4341 23.3107 66.7115 23.9173 67.2661 24.264C67.8208 24.5933 68.5748 24.758 69.5281 24.758ZM69.3201 12.642C70.2908 12.642 71.1055 12.772 71.7641 13.032C72.4401 13.2747 72.9775 13.63 73.3761 14.098C73.7921 14.5487 74.0868 15.0947 74.2601 15.736C74.4335 16.36 74.5201 17.0533 74.5201 17.816V26.266C74.3121 26.3007 74.0175 26.3527 73.6361 26.422C73.2721 26.474 72.8561 26.526 72.3881 26.578C71.9201 26.63 71.4088 26.6733 70.8541 26.708C70.3168 26.76 69.7795 26.786 69.2421 26.786C68.4795 26.786 67.7775 26.708 67.1361 26.552C66.4948 26.396 65.9401 26.1533 65.4721 25.824C65.0041 25.4773 64.6401 25.0267 64.3801 24.472C64.1201 23.9173 63.9901 23.25 63.9901 22.47C63.9901 21.7247 64.1375 21.0833 64.4321 20.546C64.7441 20.0087 65.1601 19.5753 65.6801 19.246C66.2001 18.9167 66.8068 18.674 67.5001 18.518C68.1935 18.362 68.9215 18.284 69.6841 18.284C69.9268 18.284 70.1781 18.3013 70.4381 18.336C70.6981 18.3533 70.9408 18.388 71.1661 18.44C71.4088 18.4747 71.6168 18.5093 71.7901 18.544C71.9635 18.5787 72.0848 18.6047 72.1541 18.622V17.946C72.1541 17.5473 72.1108 17.1573 72.0241 16.776C71.9375 16.3773 71.7815 16.0307 71.5561 15.736C71.3308 15.424 71.0188 15.1813 70.6201 15.008C70.2388 14.8173 69.7361 14.722 69.1121 14.722C68.3148 14.722 67.6128 14.7827 67.0061 14.904C66.4168 15.008 65.9748 15.1207 65.6801 15.242L65.3941 13.24C65.7061 13.1013 66.2261 12.9713 66.9541 12.85C67.6821 12.7113 68.4708 12.642 69.3201 12.642Z" fill="white"/>
    <path d="M78.5361 13.37C79.0908 13.2313 79.8274 13.084 80.7461 12.928C81.6648 12.772 82.7221 12.694 83.9181 12.694C84.9928 12.694 85.8854 12.85 86.5961 13.162C87.3068 13.4567 87.8701 13.8813 88.2861 14.436C88.7194 14.9733 89.0228 15.6233 89.1961 16.386C89.3694 17.1487 89.4561 17.9893 89.4561 18.908V26.5H87.0381V19.428C87.0381 18.596 86.9774 17.8853 86.8561 17.296C86.7521 16.7067 86.5701 16.23 86.3101 15.866C86.0501 15.502 85.7034 15.242 85.2701 15.086C84.8368 14.9127 84.2994 14.826 83.6581 14.826C83.3981 14.826 83.1294 14.8347 82.8521 14.852C82.5748 14.8693 82.3061 14.8953 82.0461 14.93C81.8034 14.9473 81.5781 14.9733 81.3701 15.008C81.1794 15.0427 81.0408 15.0687 80.9541 15.086V26.5H78.5361V13.37Z" fill="white"/>
    <path d="M91.4228 29.022C91.6134 29.1087 91.8561 29.1867 92.1508 29.256C92.4628 29.3427 92.7661 29.386 93.0608 29.386C94.0141 29.386 94.7594 29.1693 95.2968 28.736C95.8341 28.32 96.3194 27.6353 96.7528 26.682C95.6608 24.602 94.6381 22.4007 93.6848 20.078C92.7488 17.738 91.9688 15.372 91.3448 12.98H93.9448C94.1354 13.76 94.3608 14.6007 94.6208 15.502C94.8981 16.4033 95.2014 17.3307 95.5308 18.284C95.8601 19.2373 96.2154 20.1907 96.5968 21.144C96.9781 22.0973 97.3768 23.016 97.7928 23.9C98.4514 22.08 99.0234 20.2773 99.5088 18.492C99.9941 16.7067 100.453 14.8693 100.887 12.98H103.383C102.759 15.528 102.065 17.9807 101.303 20.338C100.54 22.678 99.7168 24.8707 98.8328 26.916C98.4861 27.696 98.1221 28.3633 97.7408 28.918C97.3768 29.49 96.9694 29.958 96.5188 30.322C96.0681 30.686 95.5568 30.9547 94.9848 31.128C94.4301 31.3013 93.7974 31.388 93.0868 31.388C92.8961 31.388 92.6968 31.3707 92.4888 31.336C92.2808 31.3187 92.0728 31.284 91.8648 31.232C91.6741 31.1973 91.4921 31.154 91.3188 31.102C91.1628 31.05 91.0501 31.0067 90.9808 30.972L91.4228 29.022Z" fill="white"/>
    <path d="M108.793 25.096C108.793 25.564 108.637 25.9713 108.325 26.318C108.013 26.6647 107.588 26.838 107.051 26.838C106.513 26.838 106.089 26.6647 105.777 26.318C105.465 25.9713 105.309 25.564 105.309 25.096C105.309 24.628 105.465 24.2207 105.777 23.874C106.089 23.5273 106.513 23.354 107.051 23.354C107.588 23.354 108.013 23.5273 108.325 23.874C108.637 24.2207 108.793 24.628 108.793 25.096Z" fill="white"/>
    <path d="M117.029 24.706C119.663 24.706 120.981 23.8047 120.981 22.002C120.981 21.4473 120.859 20.9793 120.617 20.598C120.391 20.1993 120.079 19.8613 119.681 19.584C119.282 19.2893 118.823 19.038 118.303 18.83C117.8 18.622 117.263 18.414 116.691 18.206C116.032 17.9807 115.408 17.7293 114.819 17.452C114.229 17.1573 113.718 16.8193 113.285 16.438C112.851 16.0393 112.505 15.5713 112.245 15.034C112.002 14.4967 111.881 13.8467 111.881 13.084C111.881 11.5067 112.418 10.276 113.493 9.392C114.567 8.508 116.049 8.066 117.938 8.066C119.031 8.066 120.019 8.18733 120.903 8.43C121.804 8.65533 122.463 8.90666 122.879 9.184L122.073 11.238C121.709 11.0127 121.162 10.796 120.435 10.588C119.724 10.3627 118.892 10.25 117.938 10.25C117.453 10.25 117.003 10.302 116.587 10.406C116.171 10.51 115.807 10.666 115.495 10.874C115.183 11.082 114.931 11.3507 114.741 11.68C114.567 11.992 114.481 12.3647 114.481 12.798C114.481 13.2833 114.576 13.6907 114.767 14.02C114.957 14.3493 115.226 14.644 115.573 14.904C115.919 15.1467 116.318 15.372 116.769 15.58C117.237 15.788 117.748 15.996 118.303 16.204C119.083 16.516 119.793 16.828 120.435 17.14C121.093 17.452 121.657 17.8247 122.125 18.258C122.61 18.6913 122.982 19.2113 123.243 19.818C123.503 20.4073 123.633 21.1267 123.633 21.976C123.633 23.5533 123.052 24.7667 121.891 25.616C120.747 26.4653 119.126 26.89 117.029 26.89C116.318 26.89 115.659 26.838 115.053 26.734C114.463 26.6473 113.935 26.5433 113.467 26.422C112.999 26.2833 112.591 26.1447 112.245 26.006C111.915 25.85 111.655 25.72 111.465 25.616L112.219 23.536C112.617 23.7613 113.224 24.0127 114.039 24.29C114.853 24.5673 115.85 24.706 117.029 24.706Z" fill="white"/>
    <path d="M131.412 19.064C131.932 19.4627 132.478 19.9567 133.05 20.546C133.64 21.1353 134.212 21.7767 134.766 22.47C135.338 23.146 135.876 23.8393 136.378 24.55C136.881 25.2433 137.306 25.8933 137.652 26.5H134.818C134.454 25.8933 134.03 25.278 133.544 24.654C133.076 24.0127 132.582 23.406 132.062 22.834C131.542 22.2447 131.014 21.7073 130.476 21.222C129.939 20.7367 129.428 20.3293 128.942 20V26.5H126.524V6.74L128.942 6.324V18.648C129.358 18.232 129.818 17.7727 130.32 17.27C130.823 16.7673 131.317 16.256 131.802 15.736C132.288 15.216 132.747 14.722 133.18 14.254C133.614 13.7687 133.986 13.344 134.298 12.98H137.132C136.734 13.4133 136.3 13.89 135.832 14.41C135.364 14.93 134.879 15.4587 134.376 15.996C133.874 16.516 133.362 17.0447 132.842 17.582C132.34 18.102 131.863 18.596 131.412 19.064Z" fill="white"/>
    <path d="M142.526 26.5H140.108V12.98H142.526V26.5ZM141.304 10.536C140.871 10.536 140.498 10.3973 140.186 10.12C139.892 9.82533 139.744 9.43533 139.744 8.95C139.744 8.46466 139.892 8.08333 140.186 7.806C140.498 7.51133 140.871 7.364 141.304 7.364C141.738 7.364 142.102 7.51133 142.396 7.806C142.708 8.08333 142.864 8.46466 142.864 8.95C142.864 9.43533 142.708 9.82533 142.396 10.12C142.102 10.3973 141.738 10.536 141.304 10.536Z" fill="white"/>
    <path d="M146.685 13.37C147.239 13.2313 147.976 13.084 148.895 12.928C149.813 12.772 150.871 12.694 152.067 12.694C153.141 12.694 154.034 12.85 154.745 13.162C155.455 13.4567 156.019 13.8813 156.435 14.436C156.868 14.9733 157.171 15.6233 157.345 16.386C157.518 17.1487 157.605 17.9893 157.605 18.908V26.5H155.187V19.428C155.187 18.596 155.126 17.8853 155.005 17.296C154.901 16.7067 154.719 16.23 154.459 15.866C154.199 15.502 153.852 15.242 153.419 15.086C152.985 14.9127 152.448 14.826 151.807 14.826C151.547 14.826 151.278 14.8347 151.001 14.852C150.723 14.8693 150.455 14.8953 150.195 14.93C149.952 14.9473 149.727 14.9733 149.519 15.008C149.328 15.0427 149.189 15.0687 149.103 15.086V26.5H146.685V13.37Z" fill="white"/>
    <path d="M164.76 24.758C165.748 24.758 166.476 24.628 166.944 24.368C167.43 24.108 167.672 23.692 167.672 23.12C167.672 22.5307 167.438 22.0627 166.97 21.716C166.502 21.3693 165.731 20.9793 164.656 20.546C164.136 20.338 163.634 20.13 163.148 19.922C162.68 19.6967 162.273 19.4367 161.926 19.142C161.58 18.8473 161.302 18.492 161.094 18.076C160.886 17.66 160.782 17.1487 160.782 16.542C160.782 15.346 161.224 14.4013 162.108 13.708C162.992 12.9973 164.197 12.642 165.722 12.642C166.104 12.642 166.485 12.668 166.866 12.72C167.248 12.7547 167.603 12.8067 167.932 12.876C168.262 12.928 168.548 12.9887 168.79 13.058C169.05 13.1273 169.25 13.188 169.388 13.24L168.946 15.32C168.686 15.1813 168.279 15.0427 167.724 14.904C167.17 14.748 166.502 14.67 165.722 14.67C165.046 14.67 164.457 14.8087 163.954 15.086C163.452 15.346 163.2 15.762 163.2 16.334C163.2 16.6287 163.252 16.8887 163.356 17.114C163.478 17.3393 163.651 17.5473 163.876 17.738C164.119 17.9113 164.414 18.076 164.76 18.232C165.107 18.388 165.523 18.5527 166.008 18.726C166.65 18.9687 167.222 19.2113 167.724 19.454C168.227 19.6793 168.652 19.948 168.998 20.26C169.362 20.572 169.64 20.9533 169.83 21.404C170.021 21.8373 170.116 22.3747 170.116 23.016C170.116 24.264 169.648 25.2087 168.712 25.85C167.794 26.4913 166.476 26.812 164.76 26.812C163.564 26.812 162.628 26.708 161.952 26.5C161.276 26.3093 160.817 26.162 160.574 26.058L161.016 23.978C161.294 24.082 161.736 24.238 162.342 24.446C162.949 24.654 163.755 24.758 164.76 24.758Z" fill="white"/>
    <path d="M20.173 25.9261L27.514 13.2111L20.173 0.496094L5.49096 0.496094L20.173 25.9261Z" fill="white"/>
    <path d="M7.34224 8.0781L0.00244141 20.791L7.34223 33.5039L22.0218 33.5039L7.34224 8.0781Z" fill="white"/>
</svg>
