<svg width="10" height="12" viewBox="0 0 10 12" fill="none" xmlns="http://www.w3.org/2000/svg">
    <path fill-rule="evenodd" clip-rule="evenodd" d="M1.53725 5.2963V3.46667C1.53725 1.55208 3.08933 0 5.00392 0C6.91851 0 8.47059 1.55208 8.47059 3.46667V5.2963H9.23313C9.65859 5.2963 10.0035 5.6412 10.0035 6.06667V11.2296C10.0035 11.6551 9.6586 12 9.23313 12H0.76687C0.341406 12 -0.00350142 11.6551 -0.00350142 11.2296V6.06667C-0.00350142 5.6412 0.341405 5.2963 0.766869 5.2963H1.53725ZM3.07799 3.46667C3.07799 2.40301 3.94026 1.54074 5.00392 1.54074C6.06758 1.54074 6.92984 2.40301 6.92984 3.46667V5.2963H3.07799V3.46667Z" fill="white" fill-opacity="0.8"/>
</svg>
