<svg width="32" height="24" viewBox="0 0 32 24" fill="none" xmlns="http://www.w3.org/2000/svg">
    <path d="M10.302 19.116C5.148 19.116 0.959999 14.834 0.959999 9.55C0.958999 4.289 5.149 4.65661e-10 10.302 0.007C12.137 0.007 13.938 0.567 15.463 1.602C10.579 5.697 10.545 13.425 15.463 17.521C13.9399 18.5541 12.1434 19.1094 10.303 19.116H10.302Z" fill="#D02D2A"/>
    <path d="M16.07 17.065C20.826 13.266 20.806 5.863 16.07 2.045C11.334 5.863 11.314 13.273 16.07 17.065Z" fill="#E5632A"/>
    <path d="M5.479 21.319C6.086 21.339 6.47 21.733 6.47 22.334H6.484V23.922H5.931C5.931 23.71 5.934 23.513 5.937 23.333C5.953 22.333 5.961 21.837 5.377 21.837C4.727 21.837 4.741 22.414 4.762 23.345C4.766 23.525 4.77 23.718 4.77 23.923H4.238C4.238 23.713 4.241 23.518 4.244 23.339C4.26 22.343 4.268 21.837 3.684 21.837C3.035 21.837 3.047 22.384 3.069 23.327C3.073 23.511 3.077 23.71 3.077 23.922H2.524V21.388H3.077V21.692C3.15598 21.5755 3.26265 21.4804 3.38745 21.4153C3.51224 21.3502 3.65125 21.3171 3.792 21.319C4.177 21.319 4.453 21.485 4.615 21.768C4.838 21.416 5.169 21.319 5.479 21.319Z" fill="white"/>
    <path fill-rule="evenodd" clip-rule="evenodd" d="M8.967 21.388H9.499V23.929H8.967V23.612C8.784 23.853 8.528 23.985 8.177 23.985C7.482 23.985 6.949 23.425 6.949 22.652C6.949 21.885 7.482 21.319 8.177 21.319C8.528 21.319 8.784 21.464 8.967 21.692V21.388ZM7.496 22.652C7.496 22.202 7.772 21.844 8.251 21.844C8.69 21.844 8.98 22.203 8.987 22.652C8.987 23.122 8.69 23.46 8.251 23.46C7.772 23.46 7.496 23.1 7.496 22.652Z" fill="white"/>
    <path d="M11.244 22.388C11.686 22.456 12.232 22.54 12.232 23.156C12.232 24.088 10.788 24.199 10.032 23.674L10.268 23.239C10.754 23.584 11.665 23.619 11.665 23.183C11.665 22.995 11.41 22.953 11.107 22.901C10.665 22.826 10.12 22.734 10.12 22.148C10.12 21.167 11.523 21.16 12.157 21.581L11.935 22.031C11.489 21.775 10.687 21.712 10.687 22.106C10.687 22.302 10.941 22.342 11.244 22.388ZM14.471 23.329L14.62 23.799C14.262 24.039 13.095 24.261 13.095 23.045V21.892H12.582V21.388H13.095V20.614H13.648V21.388H14.532V21.899H13.648V23.045C13.648 23.632 14.215 23.474 14.471 23.329Z" fill="white"/>
    <path fill-rule="evenodd" clip-rule="evenodd" d="M17.372 22.873H15.517C15.672 23.612 16.468 23.653 16.994 23.211L17.251 23.626C16.495 24.296 14.971 24.061 14.971 22.645C14.971 21.858 15.483 21.312 16.198 21.312C16.873 21.312 17.372 21.755 17.372 22.873ZM15.537 22.423C15.591 22.065 15.814 21.823 16.178 21.823C16.528 21.823 16.765 22.03 16.826 22.423H15.537Z" fill="white"/>
    <path d="M18.478 21.692C18.721 21.264 19.193 21.25 19.504 21.388L19.342 21.913C19.119 21.795 18.478 21.692 18.478 22.493V23.923H17.925V21.388H18.478V21.692ZM21.615 22.072C21.001 21.609 20.219 21.865 20.219 22.652C20.219 23.425 20.995 23.695 21.615 23.246L21.872 23.695C21.177 24.302 19.666 24.026 19.666 22.659C19.666 21.339 21.089 20.994 21.872 21.623L21.615 22.072Z" fill="white"/>
    <path fill-rule="evenodd" clip-rule="evenodd" d="M24.165 21.388H24.718V23.929H24.165V23.612C23.659 24.358 22.148 23.978 22.148 22.652C22.148 21.36 23.605 20.932 24.165 21.692V21.388ZM22.715 22.652C22.715 22.202 22.991 21.844 23.45 21.844C23.909 21.844 24.206 22.203 24.206 22.652C24.206 23.122 23.909 23.46 23.45 23.46C22.991 23.46 22.715 23.1 22.715 22.652Z" fill="white"/>
    <path d="M25.966 21.692C26.25 21.188 26.83 21.305 26.992 21.388L26.83 21.913C26.574 21.782 25.967 21.733 25.967 22.493V23.923H25.434V21.388H25.966V21.692Z" fill="white"/>
    <path fill-rule="evenodd" clip-rule="evenodd" d="M29.178 20.359H29.711V23.929H29.178V23.612C28.678 24.351 27.161 23.992 27.161 22.652C27.161 21.34 28.624 20.939 29.178 21.692V20.359ZM28.463 23.459C28.908 23.459 29.218 23.121 29.218 22.652C29.218 22.202 28.908 21.844 28.463 21.844C28.003 21.844 27.707 22.203 27.707 22.652C27.707 23.101 28.004 23.459 28.463 23.459Z" fill="white"/>
    <path d="M21.838 0C26.992 0 31.181 4.289 31.181 9.551C31.181 14.834 26.991 19.116 21.838 19.109C19.9974 19.1037 18.2005 18.5483 16.678 17.514C21.615 13.439 21.541 5.691 16.678 1.595C18.2008 0.562099 19.998 0.00676981 21.838 0Z" fill="#E39D3E"/>
</svg>
