<svg width="86" height="22" viewBox="0 0 86 22" fill="none" xmlns="http://www.w3.org/2000/svg">
    <path d="M66.0149 5.0319H61.306C60.9841 5.0319 60.71 5.27015 60.6599 5.5934L58.7556 17.8722C58.7182 18.1146 58.9021 18.3339 59.1433 18.3339H61.5595C61.7847 18.3339 61.9768 18.1671 62.0117 17.9407L62.5518 14.4595C62.602 14.136 62.876 13.898 63.1981 13.898H64.6882C67.7896 13.898 69.5795 12.3715 70.0474 9.34594C70.258 8.02278 70.0559 6.98306 69.4466 6.2552C68.777 5.45502 67.59 5.0319 66.0149 5.0319ZM66.5581 9.51639C66.3008 11.2353 65.0101 11.2353 63.7613 11.2353H63.051L63.5492 8.02601C63.5795 7.8321 63.7439 7.68919 63.9369 7.68919H64.2626C65.1125 7.68919 65.9154 7.68919 66.3291 8.18161C66.577 8.47625 66.6519 8.91292 66.5581 9.51639Z" fill="white"/>
    <path d="M32.4306 5.0319H27.7219C27.4 5.0319 27.1259 5.27015 27.0756 5.5934L25.1713 17.8722C25.1339 18.1146 25.318 18.3339 25.5593 18.3339H27.8076C28.1295 18.3339 28.4035 18.0956 28.4539 17.7722L28.9677 14.4595C29.0179 14.136 29.2919 13.898 29.6138 13.898H31.1039C34.2055 13.898 35.9955 12.3715 36.4634 9.34594C36.6739 8.02278 36.4718 6.98306 35.8628 6.2552C35.1925 5.45502 34.0057 5.0319 32.4306 5.0319ZM32.9738 9.51639C32.7165 11.2353 31.4256 11.2353 30.1772 11.2353H29.4667L29.9649 8.02601C29.9952 7.8321 30.1594 7.68919 30.3526 7.68919H30.6783C31.5282 7.68919 32.3311 7.68919 32.7449 8.18161C32.9925 8.47625 33.0674 8.91292 32.9738 9.51639Z" fill="white"/>
    <path d="M46.5046 9.46152H44.2501C44.0569 9.46152 43.8924 9.60443 43.8622 9.79855L43.7631 10.4397L43.6055 10.2075C43.117 9.48649 42.0289 9.24587 40.9421 9.24587C38.4513 9.24587 36.3232 11.1656 35.909 13.8582C35.6934 15.2014 35.9994 16.4849 36.7483 17.3809C37.4363 18.2041 38.4183 18.5467 39.5882 18.5467C41.5959 18.5467 42.7097 17.2348 42.7097 17.2348L42.6089 17.8722C42.571 18.1146 42.7552 18.3341 42.9966 18.3341H45.0272C45.3491 18.3341 45.6229 18.0958 45.6733 17.7726L46.8923 9.92295C46.9297 9.6804 46.7456 9.46152 46.5046 9.46152ZM43.3623 13.9247C43.1445 15.235 42.1217 16.1143 40.8173 16.1143C40.1634 16.1143 39.6398 15.9004 39.3033 15.4956C38.9698 15.094 38.8443 14.5219 38.9501 13.8849C39.153 12.5865 40.1923 11.6785 41.4769 11.6785C42.1171 11.6785 42.6371 11.8946 42.9801 12.3033C43.3253 12.715 43.4611 13.2907 43.3623 13.9247Z" fill="white"/>
    <path d="M80.0889 9.46152H77.8345C77.6413 9.46152 77.4768 9.60443 77.4468 9.79855L77.3475 10.4397L77.1899 10.2075C76.7014 9.48649 75.6132 9.24587 74.5265 9.24587C72.0355 9.24587 69.9075 11.1656 69.4936 13.8582C69.278 15.2014 69.584 16.4849 70.3329 17.3809C71.0209 18.2041 72.0029 18.5467 73.1727 18.5467C75.1805 18.5467 76.2942 17.2348 76.2942 17.2348L76.1935 17.8722C76.1556 18.1146 76.3397 18.3341 76.5812 18.3341H78.6118C78.9337 18.3341 79.2075 18.0958 79.2579 17.7726L80.4768 9.92295C80.5145 9.6804 80.3302 9.46152 80.0889 9.46152ZM76.9467 13.9247C76.7289 15.235 75.7063 16.1143 74.4019 16.1143C73.7477 16.1143 73.2244 15.9004 72.8877 15.4956C72.5544 15.094 72.4287 14.5219 72.5345 13.8849C72.7376 12.5865 73.7765 11.6785 75.0611 11.6785C75.7013 11.6785 76.2212 11.8946 76.5645 12.3033C76.9097 12.715 77.0455 13.2907 76.9467 13.9247Z" fill="white"/>
    <path d="M58.5135 9.4614H56.2472C56.0305 9.4614 55.8277 9.57073 55.7058 9.75302L52.5797 14.4355L51.2547 9.93617C51.1717 9.65445 50.9169 9.4614 50.628 9.4614H48.4002C48.1312 9.4614 47.9421 9.73042 48.0286 9.98954L50.5241 17.4387L48.177 20.8066C47.9926 21.0711 48.1787 21.4365 48.4974 21.4365H50.7614C50.9759 21.4365 51.1768 21.3296 51.2991 21.1503L58.836 10.0881C59.0163 9.82339 58.8301 9.4614 58.5135 9.4614Z" fill="white"/>
    <path d="M82.7464 5.36908L80.8136 17.8726C80.7761 18.1149 80.9603 18.334 81.2013 18.334H83.1451C83.467 18.334 83.741 18.0958 83.7914 17.7725L85.6969 5.49369C85.7346 5.25136 85.5505 5.03226 85.3092 5.03226H83.1343C82.9409 5.03183 82.7764 5.17495 82.7464 5.36908Z" fill="white"/>
    <path d="M15.9441 5.5836C16.1976 3.93977 15.9424 2.8215 15.0682 1.80825C14.1057 0.692994 12.367 0.21521 10.1423 0.21521H3.68453C3.22996 0.21521 2.84268 0.551595 2.77178 1.0085L0.082846 18.349C0.0299391 18.6912 0.290029 19.0005 0.630326 19.0005H4.61696L4.34185 20.775C4.2955 21.0743 4.52279 21.3449 4.82076 21.3449H8.18098C8.57863 21.3449 8.91723 21.0507 8.97924 20.651L9.01225 20.4771L9.64523 16.3949L9.68607 16.1693C9.74808 15.7699 10.0867 15.4752 10.4843 15.4752H10.9869C14.2424 15.4752 16.7915 14.1303 17.5362 10.2405C17.8475 8.61516 17.6864 7.25843 16.8634 6.30458C16.615 6.01662 16.3054 5.77795 15.9441 5.5836Z" fill="white"/>
    <path d="M15.9339 5.67527C16.1875 4.03144 15.9323 2.91317 15.058 1.89992C14.0955 0.784663 12.3568 0.306879 10.1322 0.306879H3.67437C3.2198 0.306879 2.83252 0.643265 2.76162 1.10017L0.0726851 18.4407C0.0197783 18.7829 0.279868 19.0922 0.620165 19.0922H4.6068L5.60822 12.6341L5.57711 12.8366C5.64801 12.38 6.03169 12.0434 6.48648 12.0434H8.38139C12.1026 12.0434 15.0165 10.5058 15.8677 6.05944C15.8931 5.92815 15.9147 5.80053 15.9339 5.67527Z" fill="white"/>
    <path d="M6.68413 5.69698C6.72667 5.42236 6.90021 5.19724 7.13363 5.0836C7.23966 5.03195 7.35838 5.00311 7.4826 5.00311H12.5445C13.1443 5.00311 13.7034 5.04314 14.2145 5.12686C14.3605 5.15075 14.5027 5.1783 14.6409 5.20951C14.7789 5.24071 14.913 5.27536 15.0428 5.3141C15.1077 5.33326 15.1714 5.3537 15.2343 5.37479C15.4853 5.45959 15.7189 5.55927 15.9339 5.67527C16.1875 4.03144 15.9323 2.91317 15.058 1.89992C14.0955 0.784663 12.3568 0.306879 10.1322 0.306879H3.67437C3.2198 0.306879 2.83252 0.643265 2.76162 1.10017L0.0726851 18.4407C0.0197783 18.7829 0.279868 19.0922 0.620165 19.0922H4.6068L5.60822 12.6341L6.68413 5.69698Z" fill="white"/>
</svg>
