<svg width="58" height="16" viewBox="0 0 58 16" fill="none" xmlns="http://www.w3.org/2000/svg">
    <path d="M13.3868 5.54106H9.54113C9.54113 4.91015 9.46711 4.48679 9.31911 4.27101C9.09037 3.95216 8.45906 3.79265 7.42516 3.79248C6.42127 3.79248 5.7566 3.88435 5.43116 4.06803C5.10647 4.25263 4.94404 4.65375 4.94387 5.27137C4.94387 5.83035 5.08797 6.19828 5.37615 6.37512C5.58296 6.50029 5.85627 6.57387 6.19608 6.59587L6.97148 6.65055C8.63378 6.76054 9.67179 6.83795 10.0855 6.88277C11.4 7.01528 12.3529 7.36471 12.9441 7.93109C13.4092 8.37304 13.6862 8.95053 13.7751 9.66357C13.8299 10.1436 13.8558 10.6266 13.8526 11.1097C13.8526 12.3464 13.7347 13.2516 13.4987 13.8253C13.0708 14.8783 12.1086 15.5442 10.6123 15.8228C9.98511 15.9406 9.0263 15.9996 7.73577 15.9998C5.58207 15.9998 4.08153 15.8712 3.23414 15.614C2.1943 15.2984 1.5085 14.6593 1.1767 13.6967C0.991709 13.1605 0.899586 12.2675 0.90038 11.0178H4.74564V11.3375C4.74564 12.0045 4.93712 12.4333 5.32009 12.6242C5.62118 12.7638 5.94937 12.8352 6.28124 12.8333H7.69515C8.41648 12.8333 8.87658 12.7963 9.07547 12.7222C9.42908 12.5835 9.66123 12.3594 9.7719 12.0501C9.83708 11.8092 9.86682 11.5601 9.86019 11.3106C9.86019 10.6347 9.61372 10.223 9.12076 10.0757C8.93575 10.0175 8.07831 9.93667 6.54847 9.83317C5.31937 9.74542 4.46581 9.6607 3.98777 9.57899C2.72884 9.34355 1.89 8.85848 1.47124 8.12384C1.10287 7.49913 0.91888 6.55427 0.9193 5.28922C0.9193 4.3266 1.01876 3.55477 1.21765 2.97377C1.41651 2.39275 1.73705 1.95155 2.17921 1.65017C2.82797 1.18682 3.65712 0.914773 4.66669 0.834072C5.50733 0.760822 6.43981 0.723894 7.46412 0.723263C9.07788 0.723263 10.2279 0.815596 10.9141 1.00028C12.5876 1.44985 13.4243 2.70915 13.4243 4.77822C13.4243 4.94789 13.4117 5.20195 13.3868 5.54106ZM30.2964 16V0.642212H37.9974C39.0536 0.642212 39.8587 0.728402 40.4133 0.900805C41.6799 1.29742 42.5304 2.1098 42.9649 3.33794C43.1896 3.98261 43.3019 4.95294 43.3021 6.24892C43.3021 7.80678 43.1781 8.92636 42.9305 9.6077C42.4365 10.9554 41.4214 11.7305 39.8847 11.9331C39.7041 11.9635 38.9359 11.9899 37.5797 12.0121L36.8937 12.0349H34.4297V16H30.2964ZM34.43 8.4725H37.0068C37.8238 8.44304 38.3213 8.37958 38.4996 8.28208C38.7437 8.1478 38.9079 7.87842 38.9894 7.47533C39.0417 7.20712 39.0679 6.80784 39.0679 6.27755C39.0679 5.62793 39.0158 5.14608 38.9116 4.83202C38.763 4.39123 38.4068 4.12243 37.8432 4.02559C37.7313 4.01097 37.4641 4.00345 37.0413 4.00308H34.4302L34.43 8.4725ZM52.125 13.3459H46.5986L45.8561 16H41.5797L46.1945 0.642212H52.4294L57.1004 16H52.9138L52.125 13.3459ZM51.3045 10.3541L49.3674 3.69681L47.4881 10.3541H51.3045Z" fill="white"/>
    <path d="M24.5912 2.80296C25.4015 2.80257 26.2015 2.98335 26.9328 3.33206C27.6641 3.68081 28.3081 4.18862 28.8178 4.81833L29.7087 2.90798C28.2537 1.53495 26.3273 0.772639 24.3268 0.77827C21.0699 0.77827 18.2838 2.74564 17.1407 5.53029H15.4032L14.3771 7.72958H16.6121C16.5944 7.93455 16.5851 8.14016 16.5843 8.3459C16.5844 8.59548 16.597 8.84491 16.6222 9.09323H15.4992L14.4734 11.2931H17.1937C18.3695 14.0073 21.1208 15.9127 24.3266 15.9127C25.8766 15.9164 27.3928 15.46 28.6833 14.6014V11.9054C28.1302 12.5376 27.4381 13.0331 26.6614 13.353C25.4898 13.8355 24.1865 13.8938 22.9766 13.5177C21.7666 13.1416 20.7259 12.3548 20.0343 11.2931H25.7302L26.7558 9.09323H19.1964C19.1296 8.64165 19.1188 8.18355 19.1643 7.72932H27.3921L28.4177 5.53029H19.875C20.3525 4.70161 21.0398 4.01326 21.8677 3.53446C22.6957 3.05566 23.6348 2.80352 24.5912 2.80296Z" fill="#FFBE00"/>
    <path d="M24.5912 2.8688C25.3917 2.86802 26.1822 3.04647 26.9047 3.39105C27.6273 3.73564 28.2635 4.23762 28.7667 4.86016L28.833 4.94215L28.8781 4.84647L29.7689 2.93605L29.7888 2.89247L29.7545 2.85974C28.4449 1.63273 26.7585 0.885363 24.9699 0.739403C23.1812 0.593438 21.3958 1.05749 19.9046 2.05596C18.642 2.90046 17.6588 4.10109 17.0799 5.50542L17.1407 5.46447H15.3608L15.3433 5.50231L14.3175 7.70204L14.2733 7.79596H16.6123L16.5465 7.72433C16.5287 7.93115 16.5195 8.13862 16.5187 8.3462C16.5187 8.59307 16.5313 8.84722 16.5565 9.10028L16.6223 9.02773H15.4576L15.4401 9.06559L14.4137 11.2653L14.3701 11.3592H17.1939L17.1334 11.3194C18.3595 14.1497 21.1833 15.9787 24.3268 15.9787C25.8897 15.9828 27.4186 15.5228 28.7197 14.6569L28.7487 14.6376V11.7304L28.6333 11.862C28.0869 12.4866 27.4033 12.976 26.636 13.2919C25.4786 13.7685 24.1911 13.826 22.9958 13.4545C21.8005 13.083 20.7724 12.3058 20.0891 11.2571L20.0341 11.3595H25.7724L25.79 11.3217L26.8158 9.12142L26.86 9.02782H19.1961L19.2616 9.08458C19.1955 8.63826 19.1848 8.18547 19.2297 7.73652L19.1639 7.79587H27.4341L27.4516 7.75801L28.4773 5.55842L28.5214 5.46449H19.875L19.9318 5.56365C20.4054 4.74663 21.0848 4.06794 21.9023 3.59513C22.7198 3.12233 23.6469 2.87191 24.5912 2.8688ZM19.875 5.5964H28.4172L28.3572 5.50247L27.332 7.70207L27.3918 7.66423H19.1042L19.0979 7.7239C19.0528 8.18344 19.0638 8.64676 19.1306 9.10364L19.1394 9.1604H26.7558L26.6962 9.06625L25.6706 11.2658L25.7299 11.228H19.9116L19.9789 11.3298C20.4431 12.042 21.066 12.637 21.7986 13.0682C22.5313 13.4993 23.3539 13.755 24.2019 13.815C25.0499 13.8751 25.9003 13.738 26.6864 13.4144C27.4725 13.0908 28.173 12.5895 28.733 11.9499L28.6172 11.9063V14.6023L28.6466 14.5479C27.3671 15.399 25.8638 15.8513 24.3271 15.8474C21.236 15.8474 18.4602 14.0494 17.255 11.2674L17.2375 11.2279H14.4737L14.5339 11.3226L15.559 9.1213L15.499 9.15989H16.6955L16.6879 9.0868C16.6631 8.83818 16.6501 8.58854 16.6501 8.34615C16.6501 8.15985 16.6594 7.95979 16.6779 7.73544L16.6838 7.66404H14.3774L14.4368 7.75796L15.4626 5.55835L15.4033 5.59619H17.1846L17.2012 5.55526C17.7708 4.17515 18.7373 2.99524 19.9782 2.16513C21.4446 1.18372 23.2001 0.727663 24.9587 0.871219C26.7173 1.01477 28.3756 1.74949 29.6634 2.95572L29.6486 2.87967L28.7583 4.79053L28.8694 4.77647C28.3065 4.08197 27.583 3.53495 26.7614 3.18268C25.5214 2.651 24.1293 2.59301 22.8494 3.0197C21.5694 3.4464 20.4906 4.32809 19.8177 5.4975L19.7603 5.59663L19.875 5.5964Z" fill="#101A8E"/>
</svg>
