<svg width="48" height="18" viewBox="0 0 48 18" fill="none" xmlns="http://www.w3.org/2000/svg">
    <path d="M37.9068 2.54827L41.821 1.85168V16.8697H37.9068V2.54827ZM43.6205 2.54827V16.8614H47.5346V1.85168L43.6205 2.54827ZM32.3424 16.8614H36.2566V5.88192H32.3424V16.8614ZM6.47755 7.43266C5.97999 7.39949 4.8356 7.32485 4.8356 6.29656C4.8356 5.05266 6.48585 5.05266 7.0995 5.05266C8.18585 5.05266 9.5956 5.37607 10.599 5.67461C10.599 5.67461 11.1629 5.87363 11.6356 6.07266L11.6771 6.08095V2.68095L11.619 2.66436C10.4332 2.24973 9.05658 1.85168 6.49414 1.85168C2.08243 1.85168 0.523407 4.42241 0.523407 6.61997C0.523407 7.88875 1.07072 10.8741 6.12097 11.2224C6.55219 11.2473 7.68829 11.3136 7.68829 12.3834C7.68829 13.2624 6.7595 13.7849 5.19219 13.7849C3.4756 13.7849 1.81707 13.3453 0.805358 12.9307V16.4385C2.31463 16.8366 4.02292 17.0356 6.02146 17.0356C10.3337 17.0356 12.2658 14.6058 12.2658 12.1927C12.2658 9.45607 10.1097 7.68144 6.47755 7.43266ZM30.1366 5.72436C26.521 5.84046 24.6883 7.46583 24.6883 10.6917V16.8697H28.6356V11.8278C28.6356 9.89558 28.8844 9.06632 31.1815 8.99168V5.77412C30.7834 5.69949 30.1366 5.72436 30.1366 5.72436ZM19.5219 5.87363C19.439 6.08924 18.8088 7.86388 17.2912 9.69656V1.85168L13.2527 2.64778V16.8614H17.2912V12.4663C18.4605 14.2244 19.041 16.8614 19.041 16.8614H23.8756C23.3946 14.8712 21.3049 11.2058 21.3049 11.2058C23.179 8.82583 24.0083 6.28827 24.141 5.86534H19.5219V5.87363ZM34.2912 4.82875C35.3527 4.82875 36.2234 3.96631 36.2234 2.90485C36.2234 1.84339 35.361 0.972656 34.2912 0.972656C33.2298 0.972656 32.3673 1.8351 32.3673 2.90485C32.3673 3.96631 33.2298 4.82875 34.2912 4.82875Z" fill="#DE5AB5"/>
</svg>
