<svg width="74" height="20" viewBox="0 0 74 20" fill="none" xmlns="http://www.w3.org/2000/svg">
    <path d="M10.396 19.952C15.8923 19.952 20.348 15.4963 20.348 9.99997C20.348 4.50365 15.8923 0.0479736 10.396 0.0479736C4.89968 0.0479736 0.444 4.50365 0.444 9.99997C0.444 15.4963 4.89968 19.952 10.396 19.952Z" fill="#26A17B"/>
    <path d="M11.4568 10.9184C11.388 10.9184 11.0328 10.944 10.2424 10.944C9.6024 10.944 9.1672 10.9264 9.0104 10.9184C6.58 10.8112 4.764 10.3888 4.764 9.88157C4.764 9.37437 6.5816 8.95197 9.0104 8.84797V10.4976C9.1704 10.5088 9.6248 10.536 10.2536 10.536C11.0088 10.536 11.3864 10.504 11.4568 10.4976V8.84797C13.8824 8.95677 15.6904 9.37917 15.6904 9.88477C15.6904 10.3904 13.884 10.8112 11.4568 10.928M11.4568 8.68797V7.19677H14.844V4.94237H5.628V7.19677H9.012V8.67517C6.2616 8.80157 4.1944 9.34557 4.1944 9.99837C4.1944 10.6512 6.2632 11.1952 9.012 11.3232V16.0624H11.4584V11.3232C14.204 11.1968 16.268 10.6528 16.268 9.99997C16.268 9.34717 14.204 8.80317 11.4584 8.67677M28.8008 5.55837V7.94877H31.1256V9.74237H28.7864V13.3792C28.7864 14.1792 29.2296 14.5744 29.8792 14.5744C30.23 14.5644 30.5742 14.477 30.8872 14.3184L31.468 16.0944C30.921 16.322 30.3356 16.4437 29.7432 16.4528C27.916 16.5216 26.7208 15.48 26.7208 13.3792V9.74237H25.1496V7.94877H26.7208V5.78077L28.8008 5.55837ZM68.8536 7.83677L69.0136 8.80957C69.6632 7.76797 70.5336 7.61437 71.388 7.61437C72.2424 7.61437 73.0952 7.95517 73.556 8.41437L72.604 10.2256C72.402 10.0398 72.1653 9.89579 71.9075 9.80188C71.6496 9.70797 71.3757 9.66599 71.1016 9.67837C70.0088 9.67837 69.0008 10.2592 69.0008 11.8128V16.2528H66.9208V7.83357L68.8536 7.83677ZM63.748 11.064C63.612 9.96797 62.7576 9.42397 61.564 9.42397C60.444 9.42397 59.5144 9.97117 59.2072 11.064H63.748ZM59.172 12.7888C59.308 13.8304 60.2136 14.5824 61.6824 14.5824C62.4504 14.5824 63.4584 14.2912 63.9368 13.7968L65.268 15.112C64.3816 16.0336 62.9288 16.4784 61.6472 16.4784C58.7448 16.4784 57.0184 14.6848 57.0184 11.9872C57.0184 9.42717 58.7624 7.58077 61.4984 7.58077C64.3176 7.58077 66.0776 9.32317 65.7512 12.7888H59.172ZM49.9848 4.30877V8.97917C50.7368 8.00637 51.6584 7.71517 52.6152 7.71517C55.0056 7.71517 56.0648 9.33757 56.0648 11.8144V16.2544H53.9848V11.832C53.9848 10.2944 53.1848 9.64637 52.0648 9.64637C50.8344 9.64637 49.9848 10.688 49.9848 11.952V16.256H47.9048V4.30237L49.9848 4.30877ZM44.452 5.47037V7.85277H46.7752V9.64797H44.444V13.2832C44.444 14.0832 44.8888 14.4784 45.5368 14.4784C45.8876 14.4684 46.2318 14.381 46.5448 14.2224L47.1256 15.9984C46.5786 16.226 45.9932 16.3477 45.4008 16.3568C43.5736 16.4256 42.3784 15.3824 42.3784 13.2832V9.64797H40.8072V7.85277H42.364V5.68477L44.452 5.47037ZM38.692 11.0704C38.556 9.97757 37.7016 9.43037 36.5064 9.43037C35.3864 9.43037 34.4568 9.97757 34.1496 11.0704H38.692ZM34.116 12.7952C34.252 13.8368 35.1576 14.5888 36.6264 14.5888C37.3944 14.5888 38.4024 14.2976 38.8808 13.8032L40.212 15.1184C39.324 16.0336 37.884 16.4784 36.604 16.4784C33.692 16.4784 31.964 14.6848 31.964 11.9872C31.964 9.42717 33.7064 7.58077 36.444 7.58077C39.2616 7.58077 41.02 9.32317 40.6968 12.7888L34.116 12.7952Z" fill="white"/>
</svg>
