<svg width="91" height="30" viewBox="0 0 91 30" fill="none" xmlns="http://www.w3.org/2000/svg">
    <path d="M15.4656 30C23.7498 30 30.4656 23.2843 30.4656 15C30.4656 6.71573 23.7498 0 15.4656 0C7.1813 0 0.465569 6.71573 0.465569 15C0.465569 23.2843 7.1813 30 15.4656 30Z" fill="white" fill-opacity="0.28"/>
    <path d="M17.065 16.3798C16.9613 16.3871 16.426 16.4184 15.2346 16.4184C14.2821 16.4184 13.6141 16.3919 13.3777 16.3798V16.3822C9.71455 16.2207 6.98223 15.584 6.98223 14.8195C6.98223 14.0575 9.71696 13.4184 13.3777 13.2568V15.748C13.6165 15.7649 14.3038 15.8059 15.2515 15.8059C16.3898 15.8059 16.9589 15.7576 17.065 15.748V13.2592C20.721 13.4232 23.4461 14.0599 23.4461 14.8219C23.4461 15.584 20.7186 16.2207 17.065 16.3846V16.3798ZM17.065 13.0012V10.7729H22.1655V7.375H8.27966V10.7729H13.3801V13.0012C9.23464 13.1917 6.11889 14.0117 6.11889 14.9956C6.11889 15.9795 9.23705 16.7994 13.3801 16.9924V24.1354H17.0674V16.9924C21.2057 16.8018 24.3166 15.9819 24.3166 14.998C24.3166 14.0165 21.2057 13.1941 17.0674 13.0036" fill="white"/>
    <path d="M41.0733 4.7162V7.35833H43.6412V9.3408H41.0557V13.3606C41.0557 14.2484 41.5455 14.6816 42.2635 14.6816C42.6225 14.6816 43.0381 14.5685 43.3777 14.3987L44.0196 16.3617C43.36 16.6252 42.8118 16.7384 42.1132 16.7578C40.0936 16.8339 38.7725 15.6826 38.7725 13.3606V9.3408H37.0359V7.35833H38.7725V4.96202L41.0733 4.7162ZM85.3439 7.23453L85.5137 8.30977C86.2317 7.15849 87.1938 6.98871 88.1381 6.98871C89.1002 6.98871 90.0251 7.3654 90.5344 7.87472L89.4963 9.87489C89.0241 9.47874 88.5909 9.27006 87.8357 9.27006C86.6278 9.27006 85.5137 9.91202 85.5137 11.6292V16.5368H83.2111V7.231L85.3439 7.23453ZM79.7007 10.8016C79.5504 9.5937 78.606 8.98887 77.2849 8.98887C76.0399 8.98887 75.0195 9.5937 74.6799 10.8016H79.7007ZM74.6428 12.708C74.7931 13.8593 75.7941 14.6905 77.4175 14.6905C78.2664 14.6905 79.3806 14.3686 79.9094 13.8222L81.3807 15.2759C80.3992 16.2945 78.7952 16.7861 77.3786 16.7861C74.1706 16.7861 72.2624 14.8037 72.2624 11.822C72.2624 8.99064 74.1883 6.95157 77.2089 6.95157C80.3232 6.95157 82.2685 8.87746 81.9095 12.708H74.6428ZM64.4881 3.32617V8.49723C65.3193 7.42199 66.338 7.10013 67.3955 7.10013C70.0377 7.10013 71.2084 8.89338 71.2084 11.631V16.5386H68.9058V11.6504C68.9058 9.95093 68.018 9.23469 66.7907 9.23469C65.4307 9.23469 64.4881 10.386 64.4881 11.7831V16.5403H62.1856V3.32794L64.4881 3.32617ZM58.3727 4.6101V7.25222H60.9405V9.23469H58.355V13.2545C58.355 14.1422 58.8466 14.5755 59.5629 14.5755C59.9219 14.5755 60.3375 14.4623 60.677 14.2926L61.319 16.2556C60.6594 16.5191 60.1111 16.6323 59.4126 16.6517C57.393 16.7278 56.0719 15.5747 56.0719 13.2545V9.23469H54.3352V7.25222H56.0719V4.85592L58.3727 4.6101ZM52.0114 10.8016C51.8611 9.5937 50.9167 8.98887 49.5957 8.98887C48.3507 8.98887 47.3303 9.5937 46.9907 10.8016H52.0114ZM46.9536 12.708C47.1039 13.8593 48.1049 14.6905 49.7283 14.6905C50.5772 14.6905 51.6913 14.3686 52.2201 13.8222L53.6915 15.2759C52.71 16.2945 51.106 16.7861 49.6894 16.7861C46.4796 16.7861 44.5732 14.8037 44.5732 11.822C44.5732 8.99064 46.4991 6.95157 49.5179 6.95157C52.6322 6.95157 54.5758 8.87746 54.2185 12.708H46.9536Z" fill="white"/>
    <path d="M40.7483 20.9766V27.375H39.654V20.9766H40.7483ZM42.7566 20.9766V21.8555H37.6633V20.9766H42.7566Z" fill="white"/>
    <path d="M43.8703 20.9766H46.1335C46.6198 20.9766 47.0344 21.0498 47.3772 21.1963C47.7199 21.3428 47.9822 21.5596 48.1638 21.8467C48.3484 22.1309 48.4406 22.4824 48.4406 22.9014C48.4406 23.2207 48.3821 23.502 48.2649 23.7451C48.1477 23.9883 47.9822 24.1934 47.7683 24.3604C47.5544 24.5244 47.2995 24.6519 47.0036 24.7427L46.6697 24.9053H44.635L44.6262 24.0308H46.1511C46.4148 24.0308 46.6345 23.9839 46.8103 23.8901C46.9861 23.7964 47.1179 23.6689 47.2058 23.5078C47.2966 23.3438 47.342 23.1592 47.342 22.9541C47.342 22.7314 47.2981 22.5381 47.2102 22.374C47.1252 22.207 46.9934 22.0796 46.8147 21.9917C46.636 21.9009 46.4089 21.8555 46.1335 21.8555H44.9734V27.375H43.8703V20.9766ZM47.5222 27.375L46.0193 24.501L47.175 24.4966L48.6999 27.3179V27.375H47.5222Z" fill="white"/>
    <path d="M53.5886 25.292H54.6872C54.6521 25.7109 54.5349 26.0845 54.3356 26.4126C54.1364 26.7378 53.8566 26.9941 53.4963 27.1816C53.1359 27.3691 52.698 27.4629 52.1823 27.4629C51.7868 27.4629 51.4309 27.3926 51.1145 27.252C50.798 27.1084 50.5271 26.9062 50.3015 26.6455C50.0759 26.3818 49.903 26.064 49.7829 25.6919C49.6657 25.3198 49.6071 24.9038 49.6071 24.4438V23.9121C49.6071 23.4521 49.6672 23.0361 49.7873 22.6641C49.9104 22.292 50.0861 21.9741 50.3147 21.7104C50.5432 21.4438 50.8171 21.2402 51.1364 21.0996C51.4587 20.959 51.8205 20.8887 52.2219 20.8887C52.7316 20.8887 53.1623 20.9824 53.5139 21.1699C53.8654 21.3574 54.1379 21.6167 54.3313 21.9478C54.5275 22.2788 54.6477 22.6582 54.6916 23.0859H53.593C53.5637 22.8105 53.4992 22.5747 53.3996 22.3784C53.3029 22.1821 53.1594 22.0327 52.9689 21.9302C52.7785 21.8247 52.5295 21.772 52.2219 21.772C51.9699 21.772 51.7502 21.8188 51.5627 21.9126C51.3752 22.0063 51.2185 22.144 51.0925 22.3257C50.9665 22.5073 50.8713 22.7314 50.8068 22.998C50.7453 23.2617 50.7146 23.5635 50.7146 23.9033V24.4438C50.7146 24.7661 50.7424 25.0591 50.798 25.3228C50.8566 25.5835 50.9445 25.8076 51.0617 25.9951C51.1818 26.1826 51.3342 26.3276 51.5188 26.4302C51.7033 26.5327 51.9245 26.584 52.1823 26.584C52.4958 26.584 52.7492 26.5342 52.9426 26.4346C53.1389 26.335 53.2868 26.1899 53.3864 25.9995C53.489 25.8062 53.5564 25.5703 53.5886 25.292Z" fill="white"/>
    <path d="M57.985 24.2197V25.0635H55.6603V24.2197H57.985Z" fill="white"/>
    <path d="M63.4098 26.5312V27.375H59.1208V26.6499L61.2038 24.3779C61.4323 24.1201 61.6125 23.8975 61.7443 23.71C61.8761 23.5225 61.9684 23.354 62.0212 23.2046C62.0768 23.0522 62.1047 22.9043 62.1047 22.7607C62.1047 22.5586 62.0666 22.3813 61.9904 22.229C61.9172 22.0737 61.8088 21.9521 61.6652 21.8643C61.5216 21.7734 61.3473 21.728 61.1423 21.728C60.9049 21.728 60.7057 21.7793 60.5446 21.8818C60.3835 21.9844 60.2619 22.1265 60.1798 22.3081C60.0978 22.4868 60.0568 22.6919 60.0568 22.9233H58.9977C58.9977 22.5513 59.0827 22.2114 59.2526 21.9038C59.4225 21.5933 59.6686 21.3472 59.9909 21.1655C60.3131 20.981 60.7013 20.8887 61.1554 20.8887C61.5832 20.8887 61.9464 20.9604 62.2453 21.104C62.5441 21.2476 62.7712 21.4512 62.9264 21.7148C63.0846 21.9785 63.1637 22.2905 63.1637 22.6509C63.1637 22.8501 63.1315 23.0479 63.0671 23.2441C63.0026 23.4404 62.9103 23.6367 62.7902 23.833C62.673 24.0264 62.5339 24.2212 62.3727 24.4175C62.2116 24.6108 62.0343 24.8071 61.841 25.0063L60.4567 26.5312H63.4098Z" fill="white"/>
    <path d="M68.6764 23.6396V24.6855C68.6764 25.1865 68.6266 25.6143 68.527 25.9688C68.4303 26.3203 68.2897 26.606 68.1051 26.8257C67.9205 27.0454 67.6994 27.2065 67.4415 27.3091C67.1867 27.4116 66.901 27.4629 66.5846 27.4629C66.3327 27.4629 66.0983 27.4307 65.8815 27.3662C65.6676 27.3018 65.4743 27.2007 65.3014 27.063C65.1286 26.9253 64.9806 26.748 64.8576 26.5312C64.7374 26.3115 64.6437 26.0493 64.5763 25.7446C64.5119 25.4399 64.4796 25.0869 64.4796 24.6855V23.6396C64.4796 23.1357 64.5294 22.7109 64.629 22.3652C64.7287 22.0166 64.8707 21.7339 65.0553 21.5171C65.2399 21.2974 65.4596 21.1377 65.7145 21.0381C65.9723 20.9385 66.2594 20.8887 66.5758 20.8887C66.8307 20.8887 67.0651 20.9209 67.2789 20.9854C67.4957 21.0469 67.6891 21.145 67.859 21.2798C68.0319 21.4146 68.1784 21.5903 68.2985 21.8071C68.4215 22.021 68.5153 22.2803 68.5797 22.585C68.6442 22.8867 68.6764 23.2383 68.6764 23.6396ZM67.6173 24.835V23.4814C67.6173 23.2266 67.6027 23.0024 67.5734 22.8091C67.5441 22.6128 67.5001 22.4473 67.4415 22.3125C67.3859 22.1748 67.3156 22.0635 67.2306 21.9785C67.1456 21.8906 67.049 21.8276 66.9406 21.7896C66.8322 21.7485 66.7106 21.728 66.5758 21.728C66.4118 21.728 66.2653 21.7603 66.1364 21.8247C66.0075 21.8862 65.8991 21.9858 65.8112 22.1235C65.7233 22.2612 65.6559 22.4429 65.609 22.6685C65.5651 22.8911 65.5431 23.1621 65.5431 23.4814V24.835C65.5431 25.0928 65.5578 25.3198 65.5871 25.5161C65.6163 25.7124 65.6603 25.8809 65.7189 26.0215C65.7775 26.1592 65.8478 26.2734 65.9298 26.3643C66.0148 26.4521 66.1115 26.5166 66.2199 26.5576C66.3312 26.5986 66.4528 26.6191 66.5846 26.6191C66.7516 26.6191 66.8996 26.5869 67.0285 26.5225C67.1574 26.458 67.2658 26.3555 67.3537 26.2148C67.4415 26.0713 67.5075 25.8853 67.5514 25.6567C67.5954 25.4282 67.6173 25.1543 67.6173 24.835Z" fill="white"/>
</svg>
