<svg width="91" height="30" viewBox="0 0 91 30" fill="none" xmlns="http://www.w3.org/2000/svg">
    <path d="M15.4656 30C23.7498 30 30.4656 23.2843 30.4656 15C30.4656 6.71573 23.7498 0 15.4656 0C7.18128 0 0.465553 6.71573 0.465553 15C0.465553 23.2843 7.18128 30 15.4656 30Z" fill="white" fill-opacity="0.28"/>
    <path d="M17.065 16.3798C16.9613 16.3871 16.4259 16.4184 15.2346 16.4184C14.2821 16.4184 13.614 16.3919 13.3777 16.3798V16.3822C9.71453 16.2207 6.98222 15.584 6.98222 14.8195C6.98222 14.0575 9.71694 13.4184 13.3777 13.2568V15.748C13.6165 15.7649 14.3038 15.8059 15.2515 15.8059C16.3898 15.8059 16.9589 15.7576 17.065 15.748V13.2592C20.721 13.4232 23.446 14.0599 23.446 14.8219C23.446 15.584 20.7186 16.2207 17.065 16.3846V16.3798ZM17.065 13.0012V10.7729H22.1655V7.375H8.27964V10.7729H13.3801V13.0012C9.23463 13.1917 6.11887 14.0117 6.11887 14.9956C6.11887 15.9795 9.23704 16.7994 13.3801 16.9924V24.1354H17.0674V16.9924C21.2057 16.8018 24.3166 15.9819 24.3166 14.998C24.3166 14.0165 21.2057 13.1941 17.0674 13.0036" fill="white"/>
    <path d="M41.0733 4.7162V7.35833H43.6412V9.3408H41.0556V13.3606C41.0556 14.2484 41.5455 14.6816 42.2635 14.6816C42.6225 14.6816 43.0381 14.5685 43.3777 14.3987L44.0196 16.3617C43.36 16.6252 42.8118 16.7384 42.1132 16.7578C40.0936 16.8339 38.7725 15.6826 38.7725 13.3606V9.3408H37.0359V7.35833H38.7725V4.96202L41.0733 4.7162ZM85.3439 7.23453L85.5137 8.30977C86.2317 7.15849 87.1937 6.98871 88.1381 6.98871C89.1002 6.98871 90.0251 7.3654 90.5344 7.87472L89.4963 9.87489C89.0241 9.47874 88.5908 9.27006 87.8357 9.27006C86.6278 9.27006 85.5137 9.91202 85.5137 11.6292V16.5368H83.2111V7.231L85.3439 7.23453ZM79.7007 10.8016C79.5503 9.5937 78.606 8.98887 77.2849 8.98887C76.0399 8.98887 75.0195 9.5937 74.6799 10.8016H79.7007ZM74.6428 12.708C74.7931 13.8593 75.7941 14.6905 77.4175 14.6905C78.2664 14.6905 79.3806 14.3686 79.9093 13.8222L81.3807 15.2759C80.3992 16.2945 78.7952 16.7861 77.3786 16.7861C74.1706 16.7861 72.2624 14.8037 72.2624 11.822C72.2624 8.99064 74.1883 6.95157 77.2089 6.95157C80.3232 6.95157 82.2685 8.87746 81.9095 12.708H74.6428ZM64.4881 3.32617V8.49723C65.3193 7.42199 66.338 7.10013 67.3955 7.10013C70.0376 7.10013 71.2084 8.89338 71.2084 11.631V16.5386H68.9058V11.6504C68.9058 9.95093 68.018 9.23469 66.7907 9.23469C65.4307 9.23469 64.4881 10.386 64.4881 11.7831V16.5403H62.1855V3.32794L64.4881 3.32617ZM58.3727 4.6101V7.25222H60.9405V9.23469H58.355V13.2545C58.355 14.1422 58.8466 14.5755 59.5629 14.5755C59.9219 14.5755 60.3375 14.4623 60.677 14.2926L61.319 16.2556C60.6593 16.5191 60.1111 16.6323 59.4126 16.6517C57.3929 16.7278 56.0719 15.5747 56.0719 13.2545V9.23469H54.3352V7.25222H56.0719V4.85592L58.3727 4.6101ZM52.0114 10.8016C51.8611 9.5937 50.9167 8.98887 49.5957 8.98887C48.3507 8.98887 47.3302 9.5937 46.9907 10.8016H52.0114ZM46.9536 12.708C47.1039 13.8593 48.1048 14.6905 49.7283 14.6905C50.5772 14.6905 51.6913 14.3686 52.2201 13.8222L53.6915 15.2759C52.71 16.2945 51.106 16.7861 49.6894 16.7861C46.4796 16.7861 44.5732 14.8037 44.5732 11.822C44.5732 8.99064 46.4991 6.95157 49.5179 6.95157C52.6322 6.95157 54.5757 8.87746 54.2185 12.708H46.9536Z" fill="white"/>
    <path d="M42.3039 26.5005V27.375H38.907V26.5005H42.3039ZM39.219 20.9766V27.375H38.1159V20.9766H39.219ZM41.8601 23.6484V24.5098H38.907V23.6484H41.8601ZM42.282 20.9766V21.8555H38.907V20.9766H42.282Z" fill="white"/>
    <path d="M43.4748 20.9766H45.738C46.2243 20.9766 46.6389 21.0498 46.9816 21.1963C47.3244 21.3428 47.5866 21.5596 47.7683 21.8467C47.9528 22.1309 48.0451 22.4824 48.0451 22.9014C48.0451 23.2207 47.9865 23.502 47.8693 23.7451C47.7522 23.9883 47.5866 24.1934 47.3728 24.3604C47.1589 24.5244 46.904 24.6519 46.6081 24.7427L46.2741 24.9053H44.2395L44.2307 24.0308H45.7556C46.0192 24.0308 46.239 23.9839 46.4148 23.8901C46.5905 23.7964 46.7224 23.6689 46.8103 23.5078C46.9011 23.3438 46.9465 23.1592 46.9465 22.9541C46.9465 22.7314 46.9025 22.5381 46.8147 22.374C46.7297 22.207 46.5979 22.0796 46.4191 21.9917C46.2404 21.9009 46.0134 21.8555 45.738 21.8555H44.5778V27.375H43.4748V20.9766ZM47.1267 27.375L45.6237 24.501L46.7795 24.4966L48.3044 27.3179V27.375H47.1267Z" fill="white"/>
    <path d="M53.1931 25.292H54.2917C54.2565 25.7109 54.1393 26.0845 53.9401 26.4126C53.7409 26.7378 53.4611 26.9941 53.1008 27.1816C52.7404 27.3691 52.3024 27.4629 51.7868 27.4629C51.3913 27.4629 51.0353 27.3926 50.7189 27.252C50.4025 27.1084 50.1315 26.9062 49.9059 26.6455C49.6804 26.3818 49.5075 26.064 49.3874 25.6919C49.2702 25.3198 49.2116 24.9038 49.2116 24.4438V23.9121C49.2116 23.4521 49.2717 23.0361 49.3918 22.6641C49.5148 22.292 49.6906 21.9741 49.9191 21.7104C50.1476 21.4438 50.4216 21.2402 50.7409 21.0996C51.0632 20.959 51.425 20.8887 51.8264 20.8887C52.3361 20.8887 52.7668 20.9824 53.1183 21.1699C53.4699 21.3574 53.7424 21.6167 53.9357 21.9478C54.132 22.2788 54.2521 22.6582 54.2961 23.0859H53.1974C53.1682 22.8105 53.1037 22.5747 53.0041 22.3784C52.9074 22.1821 52.7639 22.0327 52.5734 21.9302C52.383 21.8247 52.134 21.772 51.8264 21.772C51.5744 21.772 51.3547 21.8188 51.1672 21.9126C50.9797 22.0063 50.8229 22.144 50.697 22.3257C50.571 22.5073 50.4758 22.7314 50.4113 22.998C50.3498 23.2617 50.319 23.5635 50.319 23.9033V24.4438C50.319 24.7661 50.3469 25.0591 50.4025 25.3228C50.4611 25.5835 50.549 25.8076 50.6662 25.9951C50.7863 26.1826 50.9387 26.3276 51.1232 26.4302C51.3078 26.5327 51.529 26.584 51.7868 26.584C52.1003 26.584 52.3537 26.5342 52.5471 26.4346C52.7433 26.335 52.8913 26.1899 52.9909 25.9995C53.0934 25.8062 53.1608 25.5703 53.1931 25.292Z" fill="white"/>
    <path d="M57.5895 24.2197V25.0635H55.2648V24.2197H57.5895Z" fill="white"/>
    <path d="M63.0143 26.5312V27.375H58.7252V26.6499L60.8083 24.3779C61.0368 24.1201 61.2169 23.8975 61.3488 23.71C61.4806 23.5225 61.5729 23.354 61.6256 23.2046C61.6813 23.0522 61.7091 22.9043 61.7091 22.7607C61.7091 22.5586 61.671 22.3813 61.5949 22.229C61.5216 22.0737 61.4132 21.9521 61.2697 21.8643C61.1261 21.7734 60.9518 21.728 60.7467 21.728C60.5094 21.728 60.3102 21.7793 60.1491 21.8818C59.9879 21.9844 59.8664 22.1265 59.7843 22.3081C59.7023 22.4868 59.6613 22.6919 59.6613 22.9233H58.6022C58.6022 22.5513 58.6872 22.2114 58.8571 21.9038C59.027 21.5933 59.2731 21.3472 59.5954 21.1655C59.9176 20.981 60.3058 20.8887 60.7599 20.8887C61.1876 20.8887 61.5509 20.9604 61.8498 21.104C62.1486 21.2476 62.3756 21.4512 62.5309 21.7148C62.6891 21.9785 62.7682 22.2905 62.7682 22.6509C62.7682 22.8501 62.736 23.0479 62.6715 23.2441C62.6071 23.4404 62.5148 23.6367 62.3947 23.833C62.2775 24.0264 62.1383 24.2212 61.9772 24.4175C61.8161 24.6108 61.6388 24.8071 61.4455 25.0063L60.0612 26.5312H63.0143Z" fill="white"/>
    <path d="M68.2809 23.6396V24.6855C68.2809 25.1865 68.2311 25.6143 68.1315 25.9688C68.0348 26.3203 67.8942 26.606 67.7096 26.8257C67.525 27.0454 67.3038 27.2065 67.046 27.3091C66.7911 27.4116 66.5055 27.4629 66.1891 27.4629C65.9371 27.4629 65.7028 27.4307 65.486 27.3662C65.2721 27.3018 65.0787 27.2007 64.9059 27.063C64.733 26.9253 64.5851 26.748 64.462 26.5312C64.3419 26.3115 64.2482 26.0493 64.1808 25.7446C64.1163 25.4399 64.0841 25.0869 64.0841 24.6855V23.6396C64.0841 23.1357 64.1339 22.7109 64.2335 22.3652C64.3331 22.0166 64.4752 21.7339 64.6598 21.5171C64.8444 21.2974 65.0641 21.1377 65.319 21.0381C65.5768 20.9385 65.8639 20.8887 66.1803 20.8887C66.4352 20.8887 66.6696 20.9209 66.8834 20.9854C67.1002 21.0469 67.2936 21.145 67.4635 21.2798C67.6364 21.4146 67.7828 21.5903 67.903 21.8071C68.026 22.021 68.1198 22.2803 68.1842 22.585C68.2487 22.8867 68.2809 23.2383 68.2809 23.6396ZM67.2218 24.835V23.4814C67.2218 23.2266 67.2072 23.0024 67.1779 22.8091C67.1486 22.6128 67.1046 22.4473 67.046 22.3125C66.9904 22.1748 66.92 22.0635 66.8351 21.9785C66.7501 21.8906 66.6534 21.8276 66.545 21.7896C66.4366 21.7485 66.3151 21.728 66.1803 21.728C66.0162 21.728 65.8698 21.7603 65.7408 21.8247C65.6119 21.8862 65.5035 21.9858 65.4156 22.1235C65.3278 22.2612 65.2604 22.4429 65.2135 22.6685C65.1696 22.8911 65.1476 23.1621 65.1476 23.4814V24.835C65.1476 25.0928 65.1622 25.3198 65.1915 25.5161C65.2208 25.7124 65.2648 25.8809 65.3234 26.0215C65.382 26.1592 65.4523 26.2734 65.5343 26.3643C65.6193 26.4521 65.7159 26.5166 65.8243 26.5576C65.9357 26.5986 66.0573 26.6191 66.1891 26.6191C66.3561 26.6191 66.504 26.5869 66.6329 26.5225C66.7618 26.458 66.8702 26.3555 66.9581 26.2148C67.046 26.0713 67.1119 25.8853 67.1559 25.6567C67.1998 25.4282 67.2218 25.1543 67.2218 24.835Z" fill="white"/>
</svg>
