<svg width="12" height="12" viewBox="0 0 12 12" fill="none" xmlns="http://www.w3.org/2000/svg">
    <path fill-rule="evenodd" clip-rule="evenodd" d="M10.5 6C10.5 8.48528 8.48528 10.5 6 10.5C5.02813 10.5 4.12822 10.1919 3.39261 9.66807L9.66807 3.39261C10.1919 4.12822 10.5 5.02813 10.5 6ZM2.33195 8.60741L8.60741 2.33195C7.87179 1.8081 6.97188 1.5 6 1.5C3.51472 1.5 1.5 3.51472 1.5 6C1.5 6.97188 1.8081 7.87179 2.33195 8.60741ZM12 6C12 9.31371 9.31371 12 6 12C2.68629 12 0 9.31371 0 6C0 2.68629 2.68629 0 6 0C9.31371 0 12 2.68629 12 6Z" fill="white"/>
</svg>
