<svg width="47" height="16" viewBox="0 0 47 16" fill="none" xmlns="http://www.w3.org/2000/svg">
    <path d="M4.932 15.7794L3.20514 3.22743L7.396 5.89714L0.342285 0.235429H7.12286L7.80857 7.61829C7.89429 8.496 7.964 9.35771 8.02914 10.2434C8.42316 9.30221 8.8362 8.36907 9.268 7.44457L12.6257 0.235429H17.084L9.17657 15.7783L4.932 15.7794ZM16.1377 15.7794L19.0509 0.236571H23.0406L20.1331 15.7794H16.1377ZM26.876 16C25.0543 16 23.4086 15.576 22.4749 14.8651L22.2006 14.6537L23.5491 11.28L24.0006 11.5543C24.9069 12.1029 26.0634 12.424 27.1754 12.424C28.0246 12.424 29.0223 12.0903 29.0223 11.1589C29.0223 10.672 28.7434 10.2446 27.316 9.496C25.8029 8.66743 24.0749 7.43314 24.0749 5.208C24.0749 2.14286 26.6017 0 30.2189 0C31.6989 0 32.884 0.262857 33.836 0.794286L34.1731 0.982857L32.9 4.44571L32.4429 4.19314C31.7052 3.80712 30.8857 3.60334 30.0531 3.59886C28.7686 3.59886 28.2234 4.16457 28.2234 4.68686C28.2234 5.248 28.9297 5.69257 30.0977 6.35543C32.1766 7.46171 33.1903 8.85829 33.1903 10.6183C33.1903 13.8366 30.6554 15.9989 26.8771 15.9989L26.876 16Z" fill="#5465D6"/>
    <path fill-rule="evenodd" clip-rule="evenodd" d="M42.5114 15.7794L42.2131 11.9829H38.7549L37.0406 15.7794H32.7617L40.2234 0.236572H44.8611L46.6577 15.7794H42.5114ZM41.6909 5.016C41.5309 5.432 41.3686 5.82743 41.2074 6.17714L40.0669 8.68914H42.0074L41.7674 6.03086C41.7472 5.73126 41.7248 5.43183 41.7 5.13257V5.13029L41.6909 5.016Z" fill="#5465D6"/>
</svg>
